solid CATIA STL
  facet normal  0.000000e+000  0.000000e+000 -1.000000e+000
    outer loop
      vertex  1.220000e+002 -4.400000e+001 -2.100000e+001
      vertex  1.212929e+002 -4.429289e+001 -2.100000e+001
      vertex  1.185000e+002 -4.250000e+001 -2.100000e+001
    endloop
  endfacet
  facet normal  0.000000e+000  0.000000e+000 -1.000000e+000
    outer loop
      vertex  1.212929e+002 -4.429289e+001 -2.100000e+001
      vertex  1.210000e+002 -4.500000e+001 -2.100000e+001
      vertex  1.185000e+002 -4.250000e+001 -2.100000e+001
    endloop
  endfacet
  facet normal  0.000000e+000  0.000000e+000 -9.999999e-001
    outer loop
      vertex  7.650000e+001 -4.250000e+001 -2.100000e+001
      vertex  7.229289e+001  4.429289e+001 -2.100000e+001
      vertex  7.300000e+001  4.400000e+001 -2.100000e+001
    endloop
  endfacet
  facet normal  0.000000e+000  0.000000e+000 -9.999999e-001
    outer loop
      vertex  1.227071e+002  4.429289e+001 -2.100000e+001
      vertex  1.185000e+002 -4.250000e+001 -2.100000e+001
      vertex  1.220000e+002  4.400000e+001 -2.100000e+001
    endloop
  endfacet
  facet normal  0.000000e+000  0.000000e+000 -1.000000e+000
    outer loop
      vertex  1.210000e+002  4.500000e+001 -2.100000e+001
      vertex  7.400000e+001  4.500000e+001 -2.100000e+001
      vertex  7.370711e+001  4.570711e+001 -2.100000e+001
    endloop
  endfacet
  facet normal  -0.000000e+000  0.000000e+000 -1.000000e+000
    outer loop
      vertex  7.400000e+001 -4.500000e+001 -2.100000e+001
      vertex  1.210000e+002 -4.500000e+001 -2.100000e+001
      vertex  7.370711e+001 -4.570711e+001 -2.100000e+001
    endloop
  endfacet
  facet normal  -0.000000e+000  -0.000000e+000 -1.000000e+000
    outer loop
      vertex  7.650000e+001 -4.250000e+001 -2.100000e+001
      vertex  1.185000e+002 -4.250000e+001 -2.100000e+001
      vertex  1.210000e+002 -4.500000e+001 -2.100000e+001
    endloop
  endfacet
  facet normal  0.000000e+000  0.000000e+000 -9.999999e-001
    outer loop
      vertex  7.650000e+001 -4.250000e+001 -2.100000e+001
      vertex  1.210000e+002 -4.500000e+001 -2.100000e+001
      vertex  7.400000e+001 -4.500000e+001 -2.100000e+001
    endloop
  endfacet
  facet normal  0.000000e+000  0.000000e+000 -1.000000e+000
    outer loop
      vertex  7.650000e+001 -4.250000e+001 -2.100000e+001
      vertex  7.400000e+001 -4.500000e+001 -2.100000e+001
      vertex  7.370711e+001 -4.429289e+001 -2.100000e+001
    endloop
  endfacet
  facet normal  0.000000e+000  0.000000e+000 -1.000000e+000
    outer loop
      vertex  7.650000e+001 -4.250000e+001 -2.100000e+001
      vertex  7.370711e+001 -4.429289e+001 -2.100000e+001
      vertex  7.300000e+001 -4.400000e+001 -2.100000e+001
    endloop
  endfacet
  facet normal  0.000000e+000  0.000000e+000 -1.000000e+000
    outer loop
      vertex  1.185000e+002  4.250000e+001 -2.100000e+001
      vertex  7.650000e+001  4.250000e+001 -2.100000e+001
      vertex  7.400000e+001  4.500000e+001 -2.100000e+001
    endloop
  endfacet
  facet normal  0.000000e+000  0.000000e+000 -9.999999e-001
    outer loop
      vertex  1.185000e+002  4.250000e+001 -2.100000e+001
      vertex  7.400000e+001  4.500000e+001 -2.100000e+001
      vertex  1.210000e+002  4.500000e+001 -2.100000e+001
    endloop
  endfacet
  facet normal  0.000000e+000  -0.000000e+000 -1.000000e+000
    outer loop
      vertex  1.185000e+002  4.250000e+001 -2.100000e+001
      vertex  1.210000e+002  4.500000e+001 -2.100000e+001
      vertex  1.212929e+002  4.429289e+001 -2.100000e+001
    endloop
  endfacet
  facet normal  0.000000e+000  -0.000000e+000 -1.000000e+000
    outer loop
      vertex  1.185000e+002  4.250000e+001 -2.100000e+001
      vertex  1.212929e+002  4.429289e+001 -2.100000e+001
      vertex  1.220000e+002  4.400000e+001 -2.100000e+001
    endloop
  endfacet
  facet normal  0.000000e+000  0.000000e+000 -1.000000e+000
    outer loop
      vertex  1.185000e+002  4.250000e+001 -2.100000e+001
      vertex  1.220000e+002  4.400000e+001 -2.100000e+001
      vertex  1.185000e+002 -4.250000e+001 -2.100000e+001
    endloop
  endfacet
  facet normal  0.000000e+000  0.000000e+000 -1.000000e+000
    outer loop
      vertex  7.650000e+001  4.250000e+001 -2.100000e+001
      vertex  7.650000e+001 -4.250000e+001 -2.100000e+001
      vertex  7.300000e+001  4.400000e+001 -2.100000e+001
    endloop
  endfacet
  facet normal  0.000000e+000  0.000000e+000 -1.000000e+000
    outer loop
      vertex  7.650000e+001  4.250000e+001 -2.100000e+001
      vertex  7.300000e+001  4.400000e+001 -2.100000e+001
      vertex  7.370711e+001  4.429289e+001 -2.100000e+001
    endloop
  endfacet
  facet normal  0.000000e+000  0.000000e+000 -1.000000e+000
    outer loop
      vertex  7.650000e+001  4.250000e+001 -2.100000e+001
      vertex  7.370711e+001  4.429289e+001 -2.100000e+001
      vertex  7.400000e+001  4.500000e+001 -2.100000e+001
    endloop
  endfacet
  facet normal  -0.000000e+000  0.000000e+000 -1.000000e+000
    outer loop
      vertex  6.700000e+001  5.050000e+001 -2.100000e+001
      vertex  1.280000e+002  5.050000e+001 -2.100000e+001
      vertex  1.220000e+002  4.600000e+001 -2.100000e+001
    endloop
  endfacet
  facet normal  -0.000000e+000  0.000000e+000 -1.000000e+000
    outer loop
      vertex  6.700000e+001  5.050000e+001 -2.100000e+001
      vertex  1.220000e+002  4.600000e+001 -2.100000e+001
      vertex  1.212929e+002  4.570711e+001 -2.100000e+001
    endloop
  endfacet
  facet normal  -0.000000e+000  0.000000e+000 -1.000000e+000
    outer loop
      vertex  6.700000e+001  5.050000e+001 -2.100000e+001
      vertex  1.212929e+002  4.570711e+001 -2.100000e+001
      vertex  1.210000e+002  4.500000e+001 -2.100000e+001
    endloop
  endfacet
  facet normal  0.000000e+000  0.000000e+000 -1.000000e+000
    outer loop
      vertex  6.700000e+001  5.050000e+001 -2.100000e+001
      vertex  1.210000e+002  4.500000e+001 -2.100000e+001
      vertex  7.370711e+001  4.570711e+001 -2.100000e+001
    endloop
  endfacet
  facet normal  0.000000e+000  0.000000e+000 -1.000000e+000
    outer loop
      vertex  6.700000e+001  5.050000e+001 -2.100000e+001
      vertex  7.370711e+001  4.570711e+001 -2.100000e+001
      vertex  7.300000e+001  4.600000e+001 -2.100000e+001
    endloop
  endfacet
  facet normal  -0.000000e+000  0.000000e+000 -1.000000e+000
    outer loop
      vertex  6.700000e+001  5.050000e+001 -2.100000e+001
      vertex  7.300000e+001  4.600000e+001 -2.100000e+001
      vertex  7.229289e+001  4.570711e+001 -2.100000e+001
    endloop
  endfacet
  facet normal  -0.000000e+000  0.000000e+000 -1.000000e+000
    outer loop
      vertex  6.700000e+001  5.050000e+001 -2.100000e+001
      vertex  7.229289e+001  4.570711e+001 -2.100000e+001
      vertex  7.200000e+001  4.500000e+001 -2.100000e+001
    endloop
  endfacet
  facet normal  -0.000000e+000  -0.000000e+000 -1.000000e+000
    outer loop
      vertex  6.700000e+001  5.050000e+001 -2.100000e+001
      vertex  7.200000e+001  4.500000e+001 -2.100000e+001
      vertex  7.229289e+001  4.429289e+001 -2.100000e+001
    endloop
  endfacet
  facet normal  -0.000000e+000  -0.000000e+000 -1.000000e+000
    outer loop
      vertex  6.700000e+001  5.050000e+001 -2.100000e+001
      vertex  7.229289e+001  4.429289e+001 -2.100000e+001
      vertex  7.650000e+001 -4.250000e+001 -2.100000e+001
    endloop
  endfacet
  facet normal  -0.000000e+000  0.000000e+000 -1.000000e+000
    outer loop
      vertex  6.700000e+001  5.050000e+001 -2.100000e+001
      vertex  7.650000e+001 -4.250000e+001 -2.100000e+001
      vertex  7.300000e+001 -4.400000e+001 -2.100000e+001
    endloop
  endfacet
  facet normal  -0.000000e+000  0.000000e+000 -1.000000e+000
    outer loop
      vertex  6.700000e+001  5.050000e+001 -2.100000e+001
      vertex  7.300000e+001 -4.400000e+001 -2.100000e+001
      vertex  7.229289e+001 -4.429289e+001 -2.100000e+001
    endloop
  endfacet
  facet normal  -0.000000e+000  0.000000e+000 -1.000000e+000
    outer loop
      vertex  6.700000e+001  5.050000e+001 -2.100000e+001
      vertex  7.229289e+001 -4.429289e+001 -2.100000e+001
      vertex  7.200000e+001 -4.500000e+001 -2.100000e+001
    endloop
  endfacet
  facet normal  -0.000000e+000  0.000000e+000 -1.000000e+000
    outer loop
      vertex  6.700000e+001  5.050000e+001 -2.100000e+001
      vertex  7.200000e+001 -4.500000e+001 -2.100000e+001
      vertex  6.700000e+001 -5.050000e+001 -2.100000e+001
    endloop
  endfacet
  facet normal  0.000000e+000  0.000000e+000 -1.000000e+000
    outer loop
      vertex  1.280000e+002  5.050000e+001 -2.100000e+001
      vertex  1.280000e+002 -5.050000e+001 -2.100000e+001
      vertex  1.230000e+002 -4.500000e+001 -2.100000e+001
    endloop
  endfacet
  facet normal  0.000000e+000  0.000000e+000 -1.000000e+000
    outer loop
      vertex  1.280000e+002  5.050000e+001 -2.100000e+001
      vertex  1.230000e+002 -4.500000e+001 -2.100000e+001
      vertex  1.227071e+002 -4.429289e+001 -2.100000e+001
    endloop
  endfacet
  facet normal  0.000000e+000  0.000000e+000 -1.000000e+000
    outer loop
      vertex  1.280000e+002  5.050000e+001 -2.100000e+001
      vertex  1.227071e+002 -4.429289e+001 -2.100000e+001
      vertex  1.220000e+002 -4.400000e+001 -2.100000e+001
    endloop
  endfacet
  facet normal  0.000000e+000  0.000000e+000 -1.000000e+000
    outer loop
      vertex  1.280000e+002  5.050000e+001 -2.100000e+001
      vertex  1.220000e+002 -4.400000e+001 -2.100000e+001
      vertex  1.185000e+002 -4.250000e+001 -2.100000e+001
    endloop
  endfacet
  facet normal  0.000000e+000  0.000000e+000 -1.000000e+000
    outer loop
      vertex  1.280000e+002  5.050000e+001 -2.100000e+001
      vertex  1.185000e+002 -4.250000e+001 -2.100000e+001
      vertex  1.227071e+002  4.429289e+001 -2.100000e+001
    endloop
  endfacet
  facet normal  0.000000e+000  0.000000e+000 -9.999999e-001
    outer loop
      vertex  1.280000e+002  5.050000e+001 -2.100000e+001
      vertex  1.227071e+002  4.429289e+001 -2.100000e+001
      vertex  1.230000e+002  4.500000e+001 -2.100000e+001
    endloop
  endfacet
  facet normal  0.000000e+000  0.000000e+000 -1.000000e+000
    outer loop
      vertex  1.280000e+002  5.050000e+001 -2.100000e+001
      vertex  1.230000e+002  4.500000e+001 -2.100000e+001
      vertex  1.227071e+002  4.570711e+001 -2.100000e+001
    endloop
  endfacet
  facet normal  0.000000e+000  0.000000e+000 -1.000000e+000
    outer loop
      vertex  1.280000e+002  5.050000e+001 -2.100000e+001
      vertex  1.227071e+002  4.570711e+001 -2.100000e+001
      vertex  1.220000e+002  4.600000e+001 -2.100000e+001
    endloop
  endfacet
  facet normal  0.000000e+000  -0.000000e+000 -1.000000e+000
    outer loop
      vertex  6.700000e+001 -5.050000e+001 -2.100000e+001
      vertex  7.200000e+001 -4.500000e+001 -2.100000e+001
      vertex  7.229289e+001 -4.570711e+001 -2.100000e+001
    endloop
  endfacet
  facet normal  0.000000e+000  -0.000000e+000 -1.000000e+000
    outer loop
      vertex  6.700000e+001 -5.050000e+001 -2.100000e+001
      vertex  7.229289e+001 -4.570711e+001 -2.100000e+001
      vertex  7.300000e+001 -4.600000e+001 -2.100000e+001
    endloop
  endfacet
  facet normal  0.000000e+000  -0.000000e+000 -1.000000e+000
    outer loop
      vertex  6.700000e+001 -5.050000e+001 -2.100000e+001
      vertex  7.300000e+001 -4.600000e+001 -2.100000e+001
      vertex  7.370711e+001 -4.570711e+001 -2.100000e+001
    endloop
  endfacet
  facet normal  0.000000e+000  -0.000000e+000 -1.000000e+000
    outer loop
      vertex  6.700000e+001 -5.050000e+001 -2.100000e+001
      vertex  7.370711e+001 -4.570711e+001 -2.100000e+001
      vertex  1.210000e+002 -4.500000e+001 -2.100000e+001
    endloop
  endfacet
  facet normal  0.000000e+000  -0.000000e+000 -1.000000e+000
    outer loop
      vertex  6.700000e+001 -5.050000e+001 -2.100000e+001
      vertex  1.210000e+002 -4.500000e+001 -2.100000e+001
      vertex  1.212929e+002 -4.570711e+001 -2.100000e+001
    endloop
  endfacet
  facet normal  0.000000e+000  -0.000000e+000 -1.000000e+000
    outer loop
      vertex  6.700000e+001 -5.050000e+001 -2.100000e+001
      vertex  1.212929e+002 -4.570711e+001 -2.100000e+001
      vertex  1.220000e+002 -4.600000e+001 -2.100000e+001
    endloop
  endfacet
  facet normal  0.000000e+000  0.000000e+000 -1.000000e+000
    outer loop
      vertex  1.280000e+002 -5.050000e+001 -2.100000e+001
      vertex  6.700000e+001 -5.050000e+001 -2.100000e+001
      vertex  1.220000e+002 -4.600000e+001 -2.100000e+001
    endloop
  endfacet
  facet normal  0.000000e+000  0.000000e+000 -1.000000e+000
    outer loop
      vertex  1.280000e+002 -5.050000e+001 -2.100000e+001
      vertex  1.220000e+002 -4.600000e+001 -2.100000e+001
      vertex  1.227071e+002 -4.570711e+001 -2.100000e+001
    endloop
  endfacet
  facet normal  0.000000e+000  0.000000e+000 -1.000000e+000
    outer loop
      vertex  1.280000e+002 -5.050000e+001 -2.100000e+001
      vertex  1.227071e+002 -4.570711e+001 -2.100000e+001
      vertex  1.230000e+002 -4.500000e+001 -2.100000e+001
    endloop
  endfacet
  facet normal  0.000000e+000  0.000000e+000  1.000000e+000
    outer loop
      vertex  7.650000e+001  4.250000e+001 -1.900000e+001
      vertex  7.370711e+001  4.429289e+001 -1.900000e+001
      vertex  7.300000e+001  4.400000e+001 -1.900000e+001
    endloop
  endfacet
  facet normal  0.000000e+000  0.000000e+000  1.000000e+000
    outer loop
      vertex  7.650000e+001  4.250000e+001 -1.900000e+001
      vertex  7.400000e+001  4.500000e+001 -1.900000e+001
      vertex  7.370711e+001  4.429289e+001 -1.900000e+001
    endloop
  endfacet
  facet normal  0.000000e+000  -0.000000e+000  1.000000e+000
    outer loop
      vertex  1.185000e+002 -4.250000e+001 -1.900000e+001
      vertex  1.212929e+002 -4.429289e+001 -1.900000e+001
      vertex  1.220000e+002 -4.400000e+001 -1.900000e+001
    endloop
  endfacet
  facet normal  0.000000e+000  -0.000000e+000  1.000000e+000
    outer loop
      vertex  1.185000e+002 -4.250000e+001 -1.900000e+001
      vertex  1.210000e+002 -4.500000e+001 -1.900000e+001
      vertex  1.212929e+002 -4.429289e+001 -1.900000e+001
    endloop
  endfacet
  facet normal  0.000000e+000  0.000000e+000  9.999999e-001
    outer loop
      vertex  1.220000e+002  4.400000e+001 -1.900000e+001
      vertex  1.185000e+002 -4.250000e+001 -1.900000e+001
      vertex  1.227071e+002  4.429289e+001 -1.900000e+001
    endloop
  endfacet
  facet normal  -0.000000e+000  -0.000000e+000  9.999999e-001
    outer loop
      vertex  7.300000e+001  4.600000e+001 -1.900000e+001
      vertex  7.370711e+001  4.570711e+001 -1.900000e+001
      vertex  1.210000e+002  4.500000e+001 -1.900000e+001
    endloop
  endfacet
  facet normal  0.000000e+000  -0.000000e+000  1.000000e+000
    outer loop
      vertex  7.370711e+001  4.570711e+001 -1.900000e+001
      vertex  7.400000e+001  4.500000e+001 -1.900000e+001
      vertex  1.210000e+002  4.500000e+001 -1.900000e+001
    endloop
  endfacet
  facet normal  0.000000e+000  0.000000e+000  9.999999e-001
    outer loop
      vertex  7.300000e+001 -4.600000e+001 -1.900000e+001
      vertex  1.210000e+002 -4.500000e+001 -1.900000e+001
      vertex  7.370711e+001 -4.570711e+001 -1.900000e+001
    endloop
  endfacet
  facet normal  0.000000e+000  0.000000e+000  1.000000e+000
    outer loop
      vertex  7.370711e+001 -4.570711e+001 -1.900000e+001
      vertex  1.210000e+002 -4.500000e+001 -1.900000e+001
      vertex  7.400000e+001 -4.500000e+001 -1.900000e+001
    endloop
  endfacet
  facet normal  -0.000000e+000  0.000000e+000  1.000000e+000
    outer loop
      vertex  7.650000e+001 -4.250000e+001 -1.900000e+001
      vertex  7.300000e+001 -4.400000e+001 -1.900000e+001
      vertex  7.370711e+001 -4.429289e+001 -1.900000e+001
    endloop
  endfacet
  facet normal  -0.000000e+000  0.000000e+000  1.000000e+000
    outer loop
      vertex  7.650000e+001 -4.250000e+001 -1.900000e+001
      vertex  7.370711e+001 -4.429289e+001 -1.900000e+001
      vertex  7.400000e+001 -4.500000e+001 -1.900000e+001
    endloop
  endfacet
  facet normal  0.000000e+000  0.000000e+000  9.999999e-001
    outer loop
      vertex  7.650000e+001 -4.250000e+001 -1.900000e+001
      vertex  7.400000e+001 -4.500000e+001 -1.900000e+001
      vertex  1.210000e+002 -4.500000e+001 -1.900000e+001
    endloop
  endfacet
  facet normal  0.000000e+000  0.000000e+000  1.000000e+000
    outer loop
      vertex  7.650000e+001 -4.250000e+001 -1.900000e+001
      vertex  1.210000e+002 -4.500000e+001 -1.900000e+001
      vertex  1.185000e+002 -4.250000e+001 -1.900000e+001
    endloop
  endfacet
  facet normal  0.000000e+000  0.000000e+000  1.000000e+000
    outer loop
      vertex  1.185000e+002  4.250000e+001 -1.900000e+001
      vertex  1.185000e+002 -4.250000e+001 -1.900000e+001
      vertex  1.220000e+002  4.400000e+001 -1.900000e+001
    endloop
  endfacet
  facet normal  0.000000e+000  0.000000e+000  1.000000e+000
    outer loop
      vertex  1.185000e+002  4.250000e+001 -1.900000e+001
      vertex  1.220000e+002  4.400000e+001 -1.900000e+001
      vertex  1.212929e+002  4.429289e+001 -1.900000e+001
    endloop
  endfacet
  facet normal  0.000000e+000  0.000000e+000  1.000000e+000
    outer loop
      vertex  1.185000e+002  4.250000e+001 -1.900000e+001
      vertex  1.212929e+002  4.429289e+001 -1.900000e+001
      vertex  1.210000e+002  4.500000e+001 -1.900000e+001
    endloop
  endfacet
  facet normal  0.000000e+000  0.000000e+000  9.999999e-001
    outer loop
      vertex  1.185000e+002  4.250000e+001 -1.900000e+001
      vertex  1.210000e+002  4.500000e+001 -1.900000e+001
      vertex  7.400000e+001  4.500000e+001 -1.900000e+001
    endloop
  endfacet
  facet normal  0.000000e+000  0.000000e+000  1.000000e+000
    outer loop
      vertex  1.185000e+002  4.250000e+001 -1.900000e+001
      vertex  7.400000e+001  4.500000e+001 -1.900000e+001
      vertex  7.650000e+001  4.250000e+001 -1.900000e+001
    endloop
  endfacet
  facet normal  0.000000e+000  0.000000e+000  1.000000e+000
    outer loop
      vertex  0.000000e+000 -5.250000e+001 -1.900000e+001
      vertex  1.220000e+002 -4.600000e+001 -1.900000e+001
      vertex  1.212929e+002 -4.570711e+001 -1.900000e+001
    endloop
  endfacet
  facet normal  0.000000e+000  0.000000e+000  1.000000e+000
    outer loop
      vertex  0.000000e+000 -5.250000e+001 -1.900000e+001
      vertex  1.212929e+002 -4.570711e+001 -1.900000e+001
      vertex  1.210000e+002 -4.500000e+001 -1.900000e+001
    endloop
  endfacet
  facet normal  0.000000e+000  0.000000e+000  1.000000e+000
    outer loop
      vertex  0.000000e+000 -5.250000e+001 -1.900000e+001
      vertex  1.210000e+002 -4.500000e+001 -1.900000e+001
      vertex  7.300000e+001 -4.600000e+001 -1.900000e+001
    endloop
  endfacet
  facet normal  0.000000e+000  0.000000e+000  1.000000e+000
    outer loop
      vertex  0.000000e+000 -5.250000e+001 -1.900000e+001
      vertex  7.300000e+001 -4.600000e+001 -1.900000e+001
      vertex  7.229289e+001 -4.570711e+001 -1.900000e+001
    endloop
  endfacet
  facet normal  0.000000e+000  0.000000e+000  1.000000e+000
    outer loop
      vertex  0.000000e+000 -5.250000e+001 -1.900000e+001
      vertex  7.229289e+001 -4.570711e+001 -1.900000e+001
      vertex  7.200000e+001 -4.500000e+001 -1.900000e+001
    endloop
  endfacet
  facet normal  0.000000e+000  0.000000e+000  1.000000e+000
    outer loop
      vertex  0.000000e+000 -5.250000e+001 -1.900000e+001
      vertex  7.200000e+001 -4.500000e+001 -1.900000e+001
      vertex  0.000000e+000  5.250000e+001 -1.900000e+001
    endloop
  endfacet
  facet normal  0.000000e+000  -0.000000e+000  1.000000e+000
    outer loop
      vertex  0.000000e+000  5.250000e+001 -1.900000e+001
      vertex  7.200000e+001 -4.500000e+001 -1.900000e+001
      vertex  7.229289e+001 -4.429289e+001 -1.900000e+001
    endloop
  endfacet
  facet normal  0.000000e+000  -0.000000e+000  1.000000e+000
    outer loop
      vertex  0.000000e+000  5.250000e+001 -1.900000e+001
      vertex  7.229289e+001 -4.429289e+001 -1.900000e+001
      vertex  7.300000e+001 -4.400000e+001 -1.900000e+001
    endloop
  endfacet
  facet normal  0.000000e+000  -0.000000e+000  1.000000e+000
    outer loop
      vertex  0.000000e+000  5.250000e+001 -1.900000e+001
      vertex  7.300000e+001 -4.400000e+001 -1.900000e+001
      vertex  7.650000e+001 -4.250000e+001 -1.900000e+001
    endloop
  endfacet
  facet normal  0.000000e+000  -0.000000e+000  1.000000e+000
    outer loop
      vertex  0.000000e+000  5.250000e+001 -1.900000e+001
      vertex  7.650000e+001 -4.250000e+001 -1.900000e+001
      vertex  7.650000e+001  4.250000e+001 -1.900000e+001
    endloop
  endfacet
  facet normal  0.000000e+000  0.000000e+000  1.000000e+000
    outer loop
      vertex  0.000000e+000  5.250000e+001 -1.900000e+001
      vertex  7.650000e+001  4.250000e+001 -1.900000e+001
      vertex  7.300000e+001  4.400000e+001 -1.900000e+001
    endloop
  endfacet
  facet normal  0.000000e+000  0.000000e+000  9.999999e-001
    outer loop
      vertex  0.000000e+000  5.250000e+001 -1.900000e+001
      vertex  7.300000e+001  4.400000e+001 -1.900000e+001
      vertex  7.229289e+001  4.429289e+001 -1.900000e+001
    endloop
  endfacet
  facet normal  0.000000e+000  0.000000e+000  1.000000e+000
    outer loop
      vertex  0.000000e+000  5.250000e+001 -1.900000e+001
      vertex  7.229289e+001  4.429289e+001 -1.900000e+001
      vertex  7.200000e+001  4.500000e+001 -1.900000e+001
    endloop
  endfacet
  facet normal  0.000000e+000  -0.000000e+000  1.000000e+000
    outer loop
      vertex  0.000000e+000  5.250000e+001 -1.900000e+001
      vertex  7.200000e+001  4.500000e+001 -1.900000e+001
      vertex  7.229289e+001  4.570711e+001 -1.900000e+001
    endloop
  endfacet
  facet normal  0.000000e+000  -0.000000e+000  1.000000e+000
    outer loop
      vertex  0.000000e+000  5.250000e+001 -1.900000e+001
      vertex  7.229289e+001  4.570711e+001 -1.900000e+001
      vertex  7.300000e+001  4.600000e+001 -1.900000e+001
    endloop
  endfacet
  facet normal  -0.000000e+000  -0.000000e+000  1.000000e+000
    outer loop
      vertex  0.000000e+000  5.250000e+001 -1.900000e+001
      vertex  7.300000e+001  4.600000e+001 -1.900000e+001
      vertex  1.210000e+002  4.500000e+001 -1.900000e+001
    endloop
  endfacet
  facet normal  0.000000e+000  -0.000000e+000  1.000000e+000
    outer loop
      vertex  0.000000e+000  5.250000e+001 -1.900000e+001
      vertex  1.210000e+002  4.500000e+001 -1.900000e+001
      vertex  1.212929e+002  4.570711e+001 -1.900000e+001
    endloop
  endfacet
  facet normal  0.000000e+000  -0.000000e+000  1.000000e+000
    outer loop
      vertex  0.000000e+000  5.250000e+001 -1.900000e+001
      vertex  1.212929e+002  4.570711e+001 -1.900000e+001
      vertex  1.220000e+002  4.600000e+001 -1.900000e+001
    endloop
  endfacet
  facet normal  0.000000e+000  -0.000000e+000  1.000000e+000
    outer loop
      vertex  0.000000e+000  5.250000e+001 -1.900000e+001
      vertex  1.220000e+002  4.600000e+001 -1.900000e+001
      vertex  1.290000e+002  5.250000e+001 -1.900000e+001
    endloop
  endfacet
  facet normal  -0.000000e+000  0.000000e+000  9.999999e-001
    outer loop
      vertex  1.290000e+002  5.250000e+001 -1.900000e+001
      vertex  1.220000e+002  4.600000e+001 -1.900000e+001
      vertex  1.227071e+002  4.570711e+001 -1.900000e+001
    endloop
  endfacet
  facet normal  -0.000000e+000  0.000000e+000  1.000000e+000
    outer loop
      vertex  1.290000e+002  5.250000e+001 -1.900000e+001
      vertex  1.227071e+002  4.570711e+001 -1.900000e+001
      vertex  1.230000e+002  4.500000e+001 -1.900000e+001
    endloop
  endfacet
  facet normal  -0.000000e+000  0.000000e+000  1.000000e+000
    outer loop
      vertex  1.290000e+002  5.250000e+001 -1.900000e+001
      vertex  1.230000e+002  4.500000e+001 -1.900000e+001
      vertex  1.227071e+002  4.429289e+001 -1.900000e+001
    endloop
  endfacet
  facet normal  -0.000000e+000  0.000000e+000  1.000000e+000
    outer loop
      vertex  1.290000e+002  5.250000e+001 -1.900000e+001
      vertex  1.227071e+002  4.429289e+001 -1.900000e+001
      vertex  1.185000e+002 -4.250000e+001 -1.900000e+001
    endloop
  endfacet
  facet normal  -0.000000e+000  0.000000e+000  1.000000e+000
    outer loop
      vertex  1.290000e+002  5.250000e+001 -1.900000e+001
      vertex  1.185000e+002 -4.250000e+001 -1.900000e+001
      vertex  1.220000e+002 -4.400000e+001 -1.900000e+001
    endloop
  endfacet
  facet normal  -0.000000e+000  0.000000e+000  1.000000e+000
    outer loop
      vertex  1.290000e+002  5.250000e+001 -1.900000e+001
      vertex  1.220000e+002 -4.400000e+001 -1.900000e+001
      vertex  1.227071e+002 -4.429289e+001 -1.900000e+001
    endloop
  endfacet
  facet normal  -0.000000e+000  0.000000e+000  1.000000e+000
    outer loop
      vertex  1.290000e+002  5.250000e+001 -1.900000e+001
      vertex  1.227071e+002 -4.429289e+001 -1.900000e+001
      vertex  1.230000e+002 -4.500000e+001 -1.900000e+001
    endloop
  endfacet
  facet normal  -0.000000e+000  0.000000e+000  1.000000e+000
    outer loop
      vertex  1.290000e+002  5.250000e+001 -1.900000e+001
      vertex  1.230000e+002 -4.500000e+001 -1.900000e+001
      vertex  1.290000e+002 -5.250000e+001 -1.900000e+001
    endloop
  endfacet
  facet normal  0.000000e+000  0.000000e+000  1.000000e+000
    outer loop
      vertex  1.290000e+002 -5.250000e+001 -1.900000e+001
      vertex  1.230000e+002 -4.500000e+001 -1.900000e+001
      vertex  1.227071e+002 -4.570711e+001 -1.900000e+001
    endloop
  endfacet
  facet normal  0.000000e+000  0.000000e+000  9.999999e-001
    outer loop
      vertex  1.290000e+002 -5.250000e+001 -1.900000e+001
      vertex  1.227071e+002 -4.570711e+001 -1.900000e+001
      vertex  1.220000e+002 -4.600000e+001 -1.900000e+001
    endloop
  endfacet
  facet normal  0.000000e+000  0.000000e+000  1.000000e+000
    outer loop
      vertex  1.290000e+002 -5.250000e+001 -1.900000e+001
      vertex  1.220000e+002 -4.600000e+001 -1.900000e+001
      vertex  0.000000e+000 -5.250000e+001 -1.900000e+001
    endloop
  endfacet
  facet normal -9.238800e-001 -3.826822e-001  -0.000000e+000
    outer loop
      vertex  7.400000e+001  4.500000e+001 -2.100000e+001
      vertex  7.370711e+001  4.570711e+001 -1.900000e+001
      vertex  7.370711e+001  4.570711e+001 -2.100000e+001
    endloop
  endfacet
  facet normal -3.826822e-001 -9.238800e-001  0.000000e+000
    outer loop
      vertex  7.370711e+001  4.570711e+001 -2.100000e+001
      vertex  7.370711e+001  4.570711e+001 -1.900000e+001
      vertex  7.300000e+001  4.600000e+001 -1.900000e+001
    endloop
  endfacet
  facet normal -3.826822e-001 -9.238800e-001  -0.000000e+000
    outer loop
      vertex  7.370711e+001  4.570711e+001 -2.100000e+001
      vertex  7.300000e+001  4.600000e+001 -1.900000e+001
      vertex  7.300000e+001  4.600000e+001 -2.100000e+001
    endloop
  endfacet
  facet normal -9.238800e-001 -3.826822e-001  0.000000e+000
    outer loop
      vertex  7.370711e+001  4.570711e+001 -1.900000e+001
      vertex  7.400000e+001  4.500000e+001 -2.100000e+001
      vertex  7.400000e+001  4.500000e+001 -1.900000e+001
    endloop
  endfacet
  facet normal -9.238800e-001  3.826822e-001  0.000000e+000
    outer loop
      vertex  7.400000e+001  4.500000e+001 -1.900000e+001
      vertex  7.400000e+001  4.500000e+001 -2.100000e+001
      vertex  7.370711e+001  4.429289e+001 -2.100000e+001
    endloop
  endfacet
  facet normal -9.238800e-001  3.826822e-001  0.000000e+000
    outer loop
      vertex  7.400000e+001  4.500000e+001 -1.900000e+001
      vertex  7.370711e+001  4.429289e+001 -2.100000e+001
      vertex  7.370711e+001  4.429289e+001 -1.900000e+001
    endloop
  endfacet
  facet normal -3.826822e-001  9.238800e-001  0.000000e+000
    outer loop
      vertex  7.370711e+001  4.429289e+001 -1.900000e+001
      vertex  7.370711e+001  4.429289e+001 -2.100000e+001
      vertex  7.300000e+001  4.400000e+001 -2.100000e+001
    endloop
  endfacet
  facet normal -3.826822e-001  9.238800e-001  0.000000e+000
    outer loop
      vertex  7.370711e+001  4.429289e+001 -1.900000e+001
      vertex  7.300000e+001  4.400000e+001 -2.100000e+001
      vertex  7.300000e+001  4.400000e+001 -1.900000e+001
    endloop
  endfacet
  facet normal  9.238800e-001  3.826822e-001  0.000000e+000
    outer loop
      vertex  7.200000e+001  4.500000e+001 -2.100000e+001
      vertex  7.229289e+001  4.429289e+001 -1.900000e+001
      vertex  7.229289e+001  4.429289e+001 -2.100000e+001
    endloop
  endfacet
  facet normal  3.826822e-001  9.238800e-001  -0.000000e+000
    outer loop
      vertex  7.229289e+001  4.429289e+001 -2.100000e+001
      vertex  7.229289e+001  4.429289e+001 -1.900000e+001
      vertex  7.300000e+001  4.400000e+001 -1.900000e+001
    endloop
  endfacet
  facet normal  3.826822e-001  9.238800e-001  0.000000e+000
    outer loop
      vertex  7.229289e+001  4.429289e+001 -2.100000e+001
      vertex  7.300000e+001  4.400000e+001 -1.900000e+001
      vertex  7.300000e+001  4.400000e+001 -2.100000e+001
    endloop
  endfacet
  facet normal  9.238800e-001  3.826822e-001  -0.000000e+000
    outer loop
      vertex  7.229289e+001  4.429289e+001 -1.900000e+001
      vertex  7.200000e+001  4.500000e+001 -2.100000e+001
      vertex  7.200000e+001  4.500000e+001 -1.900000e+001
    endloop
  endfacet
  facet normal  9.238800e-001 -3.826822e-001  0.000000e+000
    outer loop
      vertex  7.200000e+001  4.500000e+001 -1.900000e+001
      vertex  7.200000e+001  4.500000e+001 -2.100000e+001
      vertex  7.229289e+001  4.570711e+001 -2.100000e+001
    endloop
  endfacet
  facet normal  9.238800e-001 -3.826822e-001  0.000000e+000
    outer loop
      vertex  7.200000e+001  4.500000e+001 -1.900000e+001
      vertex  7.229289e+001  4.570711e+001 -2.100000e+001
      vertex  7.229289e+001  4.570711e+001 -1.900000e+001
    endloop
  endfacet
  facet normal  3.826822e-001 -9.238800e-001  0.000000e+000
    outer loop
      vertex  7.229289e+001  4.570711e+001 -1.900000e+001
      vertex  7.229289e+001  4.570711e+001 -2.100000e+001
      vertex  7.300000e+001  4.600000e+001 -2.100000e+001
    endloop
  endfacet
  facet normal  3.826822e-001 -9.238800e-001  0.000000e+000
    outer loop
      vertex  7.229289e+001  4.570711e+001 -1.900000e+001
      vertex  7.300000e+001  4.600000e+001 -2.100000e+001
      vertex  7.300000e+001  4.600000e+001 -1.900000e+001
    endloop
  endfacet
  facet normal -9.238800e-001 -3.826822e-001  -0.000000e+000
    outer loop
      vertex  7.400000e+001 -4.500000e+001 -2.100000e+001
      vertex  7.370711e+001 -4.429289e+001 -1.900000e+001
      vertex  7.370711e+001 -4.429289e+001 -2.100000e+001
    endloop
  endfacet
  facet normal -3.826822e-001 -9.238800e-001  0.000000e+000
    outer loop
      vertex  7.370711e+001 -4.429289e+001 -2.100000e+001
      vertex  7.370711e+001 -4.429289e+001 -1.900000e+001
      vertex  7.300000e+001 -4.400000e+001 -1.900000e+001
    endloop
  endfacet
  facet normal -3.826822e-001 -9.238800e-001  -0.000000e+000
    outer loop
      vertex  7.370711e+001 -4.429289e+001 -2.100000e+001
      vertex  7.300000e+001 -4.400000e+001 -1.900000e+001
      vertex  7.300000e+001 -4.400000e+001 -2.100000e+001
    endloop
  endfacet
  facet normal -9.238800e-001 -3.826822e-001  0.000000e+000
    outer loop
      vertex  7.370711e+001 -4.429289e+001 -1.900000e+001
      vertex  7.400000e+001 -4.500000e+001 -2.100000e+001
      vertex  7.400000e+001 -4.500000e+001 -1.900000e+001
    endloop
  endfacet
  facet normal -9.238800e-001  3.826822e-001  0.000000e+000
    outer loop
      vertex  7.400000e+001 -4.500000e+001 -1.900000e+001
      vertex  7.400000e+001 -4.500000e+001 -2.100000e+001
      vertex  7.370711e+001 -4.570711e+001 -2.100000e+001
    endloop
  endfacet
  facet normal -9.238800e-001  3.826822e-001  0.000000e+000
    outer loop
      vertex  7.400000e+001 -4.500000e+001 -1.900000e+001
      vertex  7.370711e+001 -4.570711e+001 -2.100000e+001
      vertex  7.370711e+001 -4.570711e+001 -1.900000e+001
    endloop
  endfacet
  facet normal -3.826822e-001  9.238800e-001  0.000000e+000
    outer loop
      vertex  7.370711e+001 -4.570711e+001 -1.900000e+001
      vertex  7.370711e+001 -4.570711e+001 -2.100000e+001
      vertex  7.300000e+001 -4.600000e+001 -2.100000e+001
    endloop
  endfacet
  facet normal -3.826822e-001  9.238800e-001  0.000000e+000
    outer loop
      vertex  7.370711e+001 -4.570711e+001 -1.900000e+001
      vertex  7.300000e+001 -4.600000e+001 -2.100000e+001
      vertex  7.300000e+001 -4.600000e+001 -1.900000e+001
    endloop
  endfacet
  facet normal  9.238800e-001  3.826822e-001  0.000000e+000
    outer loop
      vertex  7.200000e+001 -4.500000e+001 -2.100000e+001
      vertex  7.229289e+001 -4.570711e+001 -1.900000e+001
      vertex  7.229289e+001 -4.570711e+001 -2.100000e+001
    endloop
  endfacet
  facet normal  3.826822e-001  9.238800e-001  -0.000000e+000
    outer loop
      vertex  7.229289e+001 -4.570711e+001 -2.100000e+001
      vertex  7.229289e+001 -4.570711e+001 -1.900000e+001
      vertex  7.300000e+001 -4.600000e+001 -1.900000e+001
    endloop
  endfacet
  facet normal  3.826822e-001  9.238800e-001  0.000000e+000
    outer loop
      vertex  7.229289e+001 -4.570711e+001 -2.100000e+001
      vertex  7.300000e+001 -4.600000e+001 -1.900000e+001
      vertex  7.300000e+001 -4.600000e+001 -2.100000e+001
    endloop
  endfacet
  facet normal  9.238800e-001  3.826822e-001  -0.000000e+000
    outer loop
      vertex  7.229289e+001 -4.570711e+001 -1.900000e+001
      vertex  7.200000e+001 -4.500000e+001 -2.100000e+001
      vertex  7.200000e+001 -4.500000e+001 -1.900000e+001
    endloop
  endfacet
  facet normal  9.238800e-001 -3.826822e-001  0.000000e+000
    outer loop
      vertex  7.200000e+001 -4.500000e+001 -1.900000e+001
      vertex  7.200000e+001 -4.500000e+001 -2.100000e+001
      vertex  7.229289e+001 -4.429289e+001 -2.100000e+001
    endloop
  endfacet
  facet normal  9.238800e-001 -3.826822e-001  0.000000e+000
    outer loop
      vertex  7.200000e+001 -4.500000e+001 -1.900000e+001
      vertex  7.229289e+001 -4.429289e+001 -2.100000e+001
      vertex  7.229289e+001 -4.429289e+001 -1.900000e+001
    endloop
  endfacet
  facet normal  3.826822e-001 -9.238800e-001  0.000000e+000
    outer loop
      vertex  7.229289e+001 -4.429289e+001 -1.900000e+001
      vertex  7.229289e+001 -4.429289e+001 -2.100000e+001
      vertex  7.300000e+001 -4.400000e+001 -2.100000e+001
    endloop
  endfacet
  facet normal  3.826822e-001 -9.238800e-001  0.000000e+000
    outer loop
      vertex  7.229289e+001 -4.429289e+001 -1.900000e+001
      vertex  7.300000e+001 -4.400000e+001 -2.100000e+001
      vertex  7.300000e+001 -4.400000e+001 -1.900000e+001
    endloop
  endfacet
  facet normal -9.238800e-001 -3.826822e-001  -0.000000e+000
    outer loop
      vertex  1.230000e+002  4.500000e+001 -2.100000e+001
      vertex  1.227071e+002  4.570711e+001 -1.900000e+001
      vertex  1.227071e+002  4.570711e+001 -2.100000e+001
    endloop
  endfacet
  facet normal -3.826822e-001 -9.238800e-001  0.000000e+000
    outer loop
      vertex  1.227071e+002  4.570711e+001 -2.100000e+001
      vertex  1.227071e+002  4.570711e+001 -1.900000e+001
      vertex  1.220000e+002  4.600000e+001 -1.900000e+001
    endloop
  endfacet
  facet normal -3.826822e-001 -9.238800e-001  -0.000000e+000
    outer loop
      vertex  1.227071e+002  4.570711e+001 -2.100000e+001
      vertex  1.220000e+002  4.600000e+001 -1.900000e+001
      vertex  1.220000e+002  4.600000e+001 -2.100000e+001
    endloop
  endfacet
  facet normal -9.238800e-001 -3.826822e-001  0.000000e+000
    outer loop
      vertex  1.227071e+002  4.570711e+001 -1.900000e+001
      vertex  1.230000e+002  4.500000e+001 -2.100000e+001
      vertex  1.230000e+002  4.500000e+001 -1.900000e+001
    endloop
  endfacet
  facet normal -9.238800e-001  3.826822e-001  0.000000e+000
    outer loop
      vertex  1.230000e+002  4.500000e+001 -1.900000e+001
      vertex  1.230000e+002  4.500000e+001 -2.100000e+001
      vertex  1.227071e+002  4.429289e+001 -2.100000e+001
    endloop
  endfacet
  facet normal -9.238800e-001  3.826822e-001  0.000000e+000
    outer loop
      vertex  1.230000e+002  4.500000e+001 -1.900000e+001
      vertex  1.227071e+002  4.429289e+001 -2.100000e+001
      vertex  1.227071e+002  4.429289e+001 -1.900000e+001
    endloop
  endfacet
  facet normal -3.826822e-001  9.238800e-001  0.000000e+000
    outer loop
      vertex  1.227071e+002  4.429289e+001 -1.900000e+001
      vertex  1.227071e+002  4.429289e+001 -2.100000e+001
      vertex  1.220000e+002  4.400000e+001 -2.100000e+001
    endloop
  endfacet
  facet normal -3.826822e-001  9.238800e-001  0.000000e+000
    outer loop
      vertex  1.227071e+002  4.429289e+001 -1.900000e+001
      vertex  1.220000e+002  4.400000e+001 -2.100000e+001
      vertex  1.220000e+002  4.400000e+001 -1.900000e+001
    endloop
  endfacet
  facet normal  9.238800e-001  3.826822e-001  0.000000e+000
    outer loop
      vertex  1.210000e+002  4.500000e+001 -2.100000e+001
      vertex  1.212929e+002  4.429289e+001 -1.900000e+001
      vertex  1.212929e+002  4.429289e+001 -2.100000e+001
    endloop
  endfacet
  facet normal  3.826822e-001  9.238800e-001  -0.000000e+000
    outer loop
      vertex  1.212929e+002  4.429289e+001 -2.100000e+001
      vertex  1.212929e+002  4.429289e+001 -1.900000e+001
      vertex  1.220000e+002  4.400000e+001 -1.900000e+001
    endloop
  endfacet
  facet normal  3.826822e-001  9.238800e-001  0.000000e+000
    outer loop
      vertex  1.212929e+002  4.429289e+001 -2.100000e+001
      vertex  1.220000e+002  4.400000e+001 -1.900000e+001
      vertex  1.220000e+002  4.400000e+001 -2.100000e+001
    endloop
  endfacet
  facet normal  9.238800e-001  3.826822e-001  -0.000000e+000
    outer loop
      vertex  1.212929e+002  4.429289e+001 -1.900000e+001
      vertex  1.210000e+002  4.500000e+001 -2.100000e+001
      vertex  1.210000e+002  4.500000e+001 -1.900000e+001
    endloop
  endfacet
  facet normal  9.238800e-001 -3.826822e-001  0.000000e+000
    outer loop
      vertex  1.210000e+002  4.500000e+001 -1.900000e+001
      vertex  1.210000e+002  4.500000e+001 -2.100000e+001
      vertex  1.212929e+002  4.570711e+001 -2.100000e+001
    endloop
  endfacet
  facet normal  9.238800e-001 -3.826822e-001  0.000000e+000
    outer loop
      vertex  1.210000e+002  4.500000e+001 -1.900000e+001
      vertex  1.212929e+002  4.570711e+001 -2.100000e+001
      vertex  1.212929e+002  4.570711e+001 -1.900000e+001
    endloop
  endfacet
  facet normal  3.826822e-001 -9.238800e-001  0.000000e+000
    outer loop
      vertex  1.212929e+002  4.570711e+001 -1.900000e+001
      vertex  1.212929e+002  4.570711e+001 -2.100000e+001
      vertex  1.220000e+002  4.600000e+001 -2.100000e+001
    endloop
  endfacet
  facet normal  3.826822e-001 -9.238800e-001  0.000000e+000
    outer loop
      vertex  1.212929e+002  4.570711e+001 -1.900000e+001
      vertex  1.220000e+002  4.600000e+001 -2.100000e+001
      vertex  1.220000e+002  4.600000e+001 -1.900000e+001
    endloop
  endfacet
  facet normal -9.238800e-001 -3.826822e-001  -0.000000e+000
    outer loop
      vertex  1.230000e+002 -4.500000e+001 -2.100000e+001
      vertex  1.227071e+002 -4.429289e+001 -1.900000e+001
      vertex  1.227071e+002 -4.429289e+001 -2.100000e+001
    endloop
  endfacet
  facet normal -3.826822e-001 -9.238800e-001  0.000000e+000
    outer loop
      vertex  1.227071e+002 -4.429289e+001 -2.100000e+001
      vertex  1.227071e+002 -4.429289e+001 -1.900000e+001
      vertex  1.220000e+002 -4.400000e+001 -1.900000e+001
    endloop
  endfacet
  facet normal -3.826822e-001 -9.238800e-001  -0.000000e+000
    outer loop
      vertex  1.227071e+002 -4.429289e+001 -2.100000e+001
      vertex  1.220000e+002 -4.400000e+001 -1.900000e+001
      vertex  1.220000e+002 -4.400000e+001 -2.100000e+001
    endloop
  endfacet
  facet normal -9.238800e-001 -3.826822e-001  0.000000e+000
    outer loop
      vertex  1.227071e+002 -4.429289e+001 -1.900000e+001
      vertex  1.230000e+002 -4.500000e+001 -2.100000e+001
      vertex  1.230000e+002 -4.500000e+001 -1.900000e+001
    endloop
  endfacet
  facet normal -9.238800e-001  3.826822e-001  0.000000e+000
    outer loop
      vertex  1.230000e+002 -4.500000e+001 -1.900000e+001
      vertex  1.230000e+002 -4.500000e+001 -2.100000e+001
      vertex  1.227071e+002 -4.570711e+001 -2.100000e+001
    endloop
  endfacet
  facet normal -9.238800e-001  3.826822e-001  0.000000e+000
    outer loop
      vertex  1.230000e+002 -4.500000e+001 -1.900000e+001
      vertex  1.227071e+002 -4.570711e+001 -2.100000e+001
      vertex  1.227071e+002 -4.570711e+001 -1.900000e+001
    endloop
  endfacet
  facet normal -3.826822e-001  9.238800e-001  0.000000e+000
    outer loop
      vertex  1.227071e+002 -4.570711e+001 -1.900000e+001
      vertex  1.227071e+002 -4.570711e+001 -2.100000e+001
      vertex  1.220000e+002 -4.600000e+001 -2.100000e+001
    endloop
  endfacet
  facet normal -3.826822e-001  9.238800e-001  0.000000e+000
    outer loop
      vertex  1.227071e+002 -4.570711e+001 -1.900000e+001
      vertex  1.220000e+002 -4.600000e+001 -2.100000e+001
      vertex  1.220000e+002 -4.600000e+001 -1.900000e+001
    endloop
  endfacet
  facet normal  9.238800e-001  3.826822e-001  0.000000e+000
    outer loop
      vertex  1.210000e+002 -4.500000e+001 -2.100000e+001
      vertex  1.212929e+002 -4.570711e+001 -1.900000e+001
      vertex  1.212929e+002 -4.570711e+001 -2.100000e+001
    endloop
  endfacet
  facet normal  3.826822e-001  9.238800e-001  -0.000000e+000
    outer loop
      vertex  1.212929e+002 -4.570711e+001 -2.100000e+001
      vertex  1.212929e+002 -4.570711e+001 -1.900000e+001
      vertex  1.220000e+002 -4.600000e+001 -1.900000e+001
    endloop
  endfacet
  facet normal  3.826822e-001  9.238800e-001  0.000000e+000
    outer loop
      vertex  1.212929e+002 -4.570711e+001 -2.100000e+001
      vertex  1.220000e+002 -4.600000e+001 -1.900000e+001
      vertex  1.220000e+002 -4.600000e+001 -2.100000e+001
    endloop
  endfacet
  facet normal  9.238800e-001  3.826822e-001  -0.000000e+000
    outer loop
      vertex  1.212929e+002 -4.570711e+001 -1.900000e+001
      vertex  1.210000e+002 -4.500000e+001 -2.100000e+001
      vertex  1.210000e+002 -4.500000e+001 -1.900000e+001
    endloop
  endfacet
  facet normal  9.238800e-001 -3.826822e-001  0.000000e+000
    outer loop
      vertex  1.210000e+002 -4.500000e+001 -1.900000e+001
      vertex  1.210000e+002 -4.500000e+001 -2.100000e+001
      vertex  1.212929e+002 -4.429289e+001 -2.100000e+001
    endloop
  endfacet
  facet normal  9.238800e-001 -3.826822e-001  0.000000e+000
    outer loop
      vertex  1.210000e+002 -4.500000e+001 -1.900000e+001
      vertex  1.212929e+002 -4.429289e+001 -2.100000e+001
      vertex  1.212929e+002 -4.429289e+001 -1.900000e+001
    endloop
  endfacet
  facet normal  3.826822e-001 -9.238800e-001  0.000000e+000
    outer loop
      vertex  1.212929e+002 -4.429289e+001 -1.900000e+001
      vertex  1.212929e+002 -4.429289e+001 -2.100000e+001
      vertex  1.220000e+002 -4.400000e+001 -2.100000e+001
    endloop
  endfacet
  facet normal  3.826822e-001 -9.238800e-001  0.000000e+000
    outer loop
      vertex  1.212929e+002 -4.429289e+001 -1.900000e+001
      vertex  1.220000e+002 -4.400000e+001 -2.100000e+001
      vertex  1.220000e+002 -4.400000e+001 -1.900000e+001
    endloop
  endfacet
  facet normal -1.000000e+000  0.000000e+000  0.000000e+000
    outer loop
      vertex  1.185000e+002  4.250000e+001 -1.900000e+001
      vertex  1.185000e+002  4.250000e+001 -2.100000e+001
      vertex  1.185000e+002 -4.250000e+001 -1.900000e+001
    endloop
  endfacet
  facet normal -1.000000e+000  0.000000e+000  0.000000e+000
    outer loop
      vertex  1.185000e+002 -4.250000e+001 -1.900000e+001
      vertex  1.185000e+002  4.250000e+001 -2.100000e+001
      vertex  1.185000e+002 -4.250000e+001 -2.100000e+001
    endloop
  endfacet
  facet normal  0.000000e+000 -1.000000e+000  0.000000e+000
    outer loop
      vertex  7.650000e+001  4.250000e+001 -1.900000e+001
      vertex  7.650000e+001  4.250000e+001 -2.100000e+001
      vertex  1.185000e+002  4.250000e+001 -1.900000e+001
    endloop
  endfacet
  facet normal  0.000000e+000 -1.000000e+000  -0.000000e+000
    outer loop
      vertex  1.185000e+002  4.250000e+001 -1.900000e+001
      vertex  7.650000e+001  4.250000e+001 -2.100000e+001
      vertex  1.185000e+002  4.250000e+001 -2.100000e+001
    endloop
  endfacet
  facet normal  1.000000e+000  0.000000e+000  0.000000e+000
    outer loop
      vertex  7.650000e+001 -4.250000e+001 -1.900000e+001
      vertex  7.650000e+001 -4.250000e+001 -2.100000e+001
      vertex  7.650000e+001  4.250000e+001 -1.900000e+001
    endloop
  endfacet
  facet normal  1.000000e+000  0.000000e+000  0.000000e+000
    outer loop
      vertex  7.650000e+001  4.250000e+001 -1.900000e+001
      vertex  7.650000e+001 -4.250000e+001 -2.100000e+001
      vertex  7.650000e+001  4.250000e+001 -2.100000e+001
    endloop
  endfacet
  facet normal  0.000000e+000  1.000000e+000  -0.000000e+000
    outer loop
      vertex  1.185000e+002 -4.250000e+001 -1.900000e+001
      vertex  1.185000e+002 -4.250000e+001 -2.100000e+001
      vertex  7.650000e+001 -4.250000e+001 -1.900000e+001
    endloop
  endfacet
  facet normal  0.000000e+000  1.000000e+000  0.000000e+000
    outer loop
      vertex  7.650000e+001 -4.250000e+001 -1.900000e+001
      vertex  1.185000e+002 -4.250000e+001 -2.100000e+001
      vertex  7.650000e+001 -4.250000e+001 -2.100000e+001
    endloop
  endfacet
  facet normal  -0.000000e+000  0.000000e+000 -1.000000e+000
    outer loop
      vertex  0.000000e+000  5.450000e+001 -2.200000e+001
      vertex  1.310000e+002  5.450000e+001 -2.200000e+001
      vertex  1.280000e+002  5.050000e+001 -2.200000e+001
    endloop
  endfacet
  facet normal  0.000000e+000  0.000000e+000 -9.999999e-001
    outer loop
      vertex  0.000000e+000  5.450000e+001 -2.200000e+001
      vertex  1.280000e+002  5.050000e+001 -2.200000e+001
      vertex  6.700000e+001  5.050000e+001 -2.200000e+001
    endloop
  endfacet
  facet normal  -0.000000e+000  -0.000000e+000 -9.999999e-001
    outer loop
      vertex  0.000000e+000  5.450000e+001 -2.200000e+001
      vertex  6.700000e+001  5.050000e+001 -2.200000e+001
      vertex  6.700000e+001 -5.050000e+001 -2.200000e+001
    endloop
  endfacet
  facet normal  -0.000000e+000  0.000000e+000 -1.000000e+000
    outer loop
      vertex  0.000000e+000  5.450000e+001 -2.200000e+001
      vertex  6.700000e+001 -5.050000e+001 -2.200000e+001
      vertex  0.000000e+000 -5.450000e+001 -2.200000e+001
    endloop
  endfacet
  facet normal  -0.000000e+000  0.000000e+000 -9.999999e-001
    outer loop
      vertex  6.700000e+001 -5.050000e+001 -2.200000e+001
      vertex  1.280000e+002 -5.050000e+001 -2.200000e+001
      vertex  0.000000e+000 -5.450000e+001 -2.200000e+001
    endloop
  endfacet
  facet normal  0.000000e+000  0.000000e+000 -1.000000e+000
    outer loop
      vertex  0.000000e+000 -5.450000e+001 -2.200000e+001
      vertex  1.280000e+002 -5.050000e+001 -2.200000e+001
      vertex  1.310000e+002 -5.450000e+001 -2.200000e+001
    endloop
  endfacet
  facet normal  0.000000e+000  0.000000e+000 -1.000000e+000
    outer loop
      vertex  1.280000e+002 -5.050000e+001 -2.200000e+001
      vertex  1.280000e+002  5.050000e+001 -2.200000e+001
      vertex  1.310000e+002 -5.450000e+001 -2.200000e+001
    endloop
  endfacet
  facet normal  0.000000e+000  0.000000e+000 -1.000000e+000
    outer loop
      vertex  1.310000e+002 -5.450000e+001 -2.200000e+001
      vertex  1.280000e+002  5.050000e+001 -2.200000e+001
      vertex  1.310000e+002  5.450000e+001 -2.200000e+001
    endloop
  endfacet
  facet normal -1.000000e+000  0.000000e+000  0.000000e+000
    outer loop
      vertex  1.280000e+002  5.050000e+001 -2.100000e+001
      vertex  1.280000e+002  5.050000e+001 -2.200000e+001
      vertex  1.280000e+002 -5.050000e+001 -2.100000e+001
    endloop
  endfacet
  facet normal -1.000000e+000  0.000000e+000  0.000000e+000
    outer loop
      vertex  1.280000e+002 -5.050000e+001 -2.100000e+001
      vertex  1.280000e+002  5.050000e+001 -2.200000e+001
      vertex  1.280000e+002 -5.050000e+001 -2.200000e+001
    endloop
  endfacet
  facet normal  0.000000e+000  9.999999e-001  0.000000e+000
    outer loop
      vertex  6.700000e+001 -5.050000e+001 -2.100000e+001
      vertex  1.280000e+002 -5.050000e+001 -2.100000e+001
      vertex  6.700000e+001 -5.050000e+001 -2.200000e+001
    endloop
  endfacet
  facet normal  0.000000e+000  9.999999e-001  0.000000e+000
    outer loop
      vertex  6.700000e+001 -5.050000e+001 -2.200000e+001
      vertex  1.280000e+002 -5.050000e+001 -2.100000e+001
      vertex  1.280000e+002 -5.050000e+001 -2.200000e+001
    endloop
  endfacet
  facet normal  1.000000e+000  0.000000e+000  0.000000e+000
    outer loop
      vertex  6.700000e+001 -5.050000e+001 -2.100000e+001
      vertex  6.700000e+001 -5.050000e+001 -2.200000e+001
      vertex  6.700000e+001  5.050000e+001 -2.100000e+001
    endloop
  endfacet
  facet normal  1.000000e+000  0.000000e+000  0.000000e+000
    outer loop
      vertex  6.700000e+001  5.050000e+001 -2.100000e+001
      vertex  6.700000e+001 -5.050000e+001 -2.200000e+001
      vertex  6.700000e+001  5.050000e+001 -2.200000e+001
    endloop
  endfacet
  facet normal  0.000000e+000 -9.999999e-001  0.000000e+000
    outer loop
      vertex  1.280000e+002  5.050000e+001 -2.100000e+001
      vertex  6.700000e+001  5.050000e+001 -2.100000e+001
      vertex  1.280000e+002  5.050000e+001 -2.200000e+001
    endloop
  endfacet
  facet normal  0.000000e+000 -9.999999e-001  0.000000e+000
    outer loop
      vertex  1.280000e+002  5.050000e+001 -2.200000e+001
      vertex  6.700000e+001  5.050000e+001 -2.100000e+001
      vertex  6.700000e+001  5.050000e+001 -2.200000e+001
    endloop
  endfacet
  facet normal -1.000000e+000  -0.000000e+000  0.000000e+000
    outer loop
      vertex  0.000000e+000 -5.450000e+001  2.200000e+001
      vertex  0.000000e+000 -5.250000e+001 -1.900000e+001
      vertex  0.000000e+000 -5.450000e+001 -2.200000e+001
    endloop
  endfacet
  facet normal -1.000000e+000  0.000000e+000  0.000000e+000
    outer loop
      vertex  0.000000e+000 -5.450000e+001 -2.200000e+001
      vertex  0.000000e+000 -5.250000e+001 -1.900000e+001
      vertex  0.000000e+000  5.250000e+001 -1.900000e+001
    endloop
  endfacet
  facet normal -1.000000e+000  0.000000e+000  -0.000000e+000
    outer loop
      vertex  0.000000e+000 -5.450000e+001 -2.200000e+001
      vertex  0.000000e+000  5.250000e+001 -1.900000e+001
      vertex  0.000000e+000  5.450000e+001 -2.200000e+001
    endloop
  endfacet
  facet normal -1.000000e+000  0.000000e+000  0.000000e+000
    outer loop
      vertex  0.000000e+000 -5.250000e+001 -1.900000e+001
      vertex  0.000000e+000 -5.450000e+001  2.200000e+001
      vertex  0.000000e+000 -5.250000e+001  2.000000e+001
    endloop
  endfacet
  facet normal -9.999999e-001  0.000000e+000  0.000000e+000
    outer loop
      vertex  0.000000e+000 -5.250000e+001  2.000000e+001
      vertex  0.000000e+000 -5.450000e+001  2.200000e+001
      vertex  0.000000e+000  5.450000e+001  2.200000e+001
    endloop
  endfacet
  facet normal -1.000000e+000  0.000000e+000  0.000000e+000
    outer loop
      vertex  0.000000e+000 -5.250000e+001  2.000000e+001
      vertex  0.000000e+000  5.450000e+001  2.200000e+001
      vertex  0.000000e+000  5.250000e+001  2.000000e+001
    endloop
  endfacet
  facet normal -1.000000e+000  0.000000e+000  0.000000e+000
    outer loop
      vertex  0.000000e+000  5.250000e+001  2.000000e+001
      vertex  0.000000e+000  5.450000e+001  2.200000e+001
      vertex  0.000000e+000  5.450000e+001 -2.200000e+001
    endloop
  endfacet
  facet normal -1.000000e+000  0.000000e+000  0.000000e+000
    outer loop
      vertex  0.000000e+000  5.250000e+001  2.000000e+001
      vertex  0.000000e+000  5.450000e+001 -2.200000e+001
      vertex  0.000000e+000  5.250000e+001 -1.900000e+001
    endloop
  endfacet
  facet normal  0.000000e+000  0.000000e+000 -9.999999e-001
    outer loop
      vertex  0.000000e+000 -5.250000e+001  2.000000e+001
      vertex  0.000000e+000  5.250000e+001  2.000000e+001
      vertex  1.290000e+002 -5.250000e+001  2.000000e+001
    endloop
  endfacet
  facet normal  0.000000e+000  0.000000e+000 -9.999999e-001
    outer loop
      vertex  1.290000e+002 -5.250000e+001  2.000000e+001
      vertex  0.000000e+000  5.250000e+001  2.000000e+001
      vertex  1.290000e+002  5.250000e+001  2.000000e+001
    endloop
  endfacet
  facet normal  0.000000e+000 -1.000000e+000  0.000000e+000
    outer loop
      vertex  0.000000e+000  5.250000e+001 -1.900000e+001
      vertex  1.290000e+002  5.250000e+001 -1.900000e+001
      vertex  0.000000e+000  5.250000e+001  2.000000e+001
    endloop
  endfacet
  facet normal  0.000000e+000 -1.000000e+000  0.000000e+000
    outer loop
      vertex  0.000000e+000  5.250000e+001  2.000000e+001
      vertex  1.290000e+002  5.250000e+001 -1.900000e+001
      vertex  1.290000e+002  5.250000e+001  2.000000e+001
    endloop
  endfacet
  facet normal  0.000000e+000  1.000000e+000  0.000000e+000
    outer loop
      vertex  0.000000e+000 -5.250000e+001  2.000000e+001
      vertex  1.290000e+002 -5.250000e+001  2.000000e+001
      vertex  0.000000e+000 -5.250000e+001 -1.900000e+001
    endloop
  endfacet
  facet normal  0.000000e+000  1.000000e+000  0.000000e+000
    outer loop
      vertex  0.000000e+000 -5.250000e+001 -1.900000e+001
      vertex  1.290000e+002 -5.250000e+001  2.000000e+001
      vertex  1.290000e+002 -5.250000e+001 -1.900000e+001
    endloop
  endfacet
  facet normal -1.000000e+000  0.000000e+000  0.000000e+000
    outer loop
      vertex  1.290000e+002 -5.250000e+001 -1.900000e+001
      vertex  1.290000e+002 -5.250000e+001  2.000000e+001
      vertex  1.290000e+002  5.250000e+001 -1.900000e+001
    endloop
  endfacet
  facet normal -1.000000e+000  0.000000e+000  0.000000e+000
    outer loop
      vertex  1.290000e+002  5.250000e+001 -1.900000e+001
      vertex  1.290000e+002 -5.250000e+001  2.000000e+001
      vertex  1.290000e+002  5.250000e+001  2.000000e+001
    endloop
  endfacet
  facet normal  1.000000e+000  0.000000e+000  0.000000e+000
    outer loop
      vertex  1.310000e+002 -5.450000e+001 -2.200000e+001
      vertex  1.310000e+002  5.450000e+001 -2.200000e+001
      vertex  1.310000e+002 -5.450000e+001  2.200000e+001
    endloop
  endfacet
  facet normal  1.000000e+000  -0.000000e+000  0.000000e+000
    outer loop
      vertex  1.310000e+002 -5.450000e+001  2.200000e+001
      vertex  1.310000e+002  5.450000e+001 -2.200000e+001
      vertex  1.310000e+002  5.450000e+001  2.200000e+001
    endloop
  endfacet
  facet normal  0.000000e+000  0.000000e+000  1.000000e+000
    outer loop
      vertex  0.000000e+000 -5.450000e+001  2.200000e+001
      vertex  1.310000e+002 -5.450000e+001  2.200000e+001
      vertex  0.000000e+000  5.450000e+001  2.200000e+001
    endloop
  endfacet
  facet normal  -0.000000e+000  0.000000e+000  1.000000e+000
    outer loop
      vertex  0.000000e+000  5.450000e+001  2.200000e+001
      vertex  1.310000e+002 -5.450000e+001  2.200000e+001
      vertex  1.310000e+002  5.450000e+001  2.200000e+001
    endloop
  endfacet
  facet normal  0.000000e+000  9.999999e-001  0.000000e+000
    outer loop
      vertex  0.000000e+000  5.450000e+001 -2.200000e+001
      vertex  0.000000e+000  5.450000e+001  2.200000e+001
      vertex  1.310000e+002  5.450000e+001 -2.200000e+001
    endloop
  endfacet
  facet normal  0.000000e+000  9.999999e-001  -0.000000e+000
    outer loop
      vertex  1.310000e+002  5.450000e+001 -2.200000e+001
      vertex  0.000000e+000  5.450000e+001  2.200000e+001
      vertex  1.310000e+002  5.450000e+001  2.200000e+001
    endloop
  endfacet
  facet normal  0.000000e+000 -9.999999e-001  0.000000e+000
    outer loop
      vertex  0.000000e+000 -5.450000e+001  2.200000e+001
      vertex  0.000000e+000 -5.450000e+001 -2.200000e+001
      vertex  1.310000e+002 -5.450000e+001  2.200000e+001
    endloop
  endfacet
  facet normal  0.000000e+000 -9.999999e-001  -0.000000e+000
    outer loop
      vertex  1.310000e+002 -5.450000e+001  2.200000e+001
      vertex  0.000000e+000 -5.450000e+001 -2.200000e+001
      vertex  1.310000e+002 -5.450000e+001 -2.200000e+001
    endloop
  endfacet
endsolid CATIA STL
