solid CATIA STL
  facet normal  9.999999e-001  0.000000e+000  0.000000e+000
    outer loop
      vertex  1.500000e+001  5.750000e+001 -2.500000e+001
      vertex  1.500000e+001  5.550000e+001 -2.300000e+001
      vertex  1.500000e+001 -5.750000e+001 -2.500000e+001
    endloop
  endfacet
  facet normal  1.000000e+000  0.000000e+000  0.000000e+000
    outer loop
      vertex  1.500000e+001 -5.750000e+001 -2.500000e+001
      vertex  1.500000e+001  5.550000e+001 -2.300000e+001
      vertex  1.500000e+001 -5.550000e+001 -2.300000e+001
    endloop
  endfacet
  facet normal  1.000000e+000  0.000000e+000  0.000000e+000
    outer loop
      vertex  1.500000e+001 -5.750000e+001 -2.500000e+001
      vertex  1.500000e+001 -5.550000e+001 -2.300000e+001
      vertex  1.500000e+001 -5.750000e+001  2.500000e+001
    endloop
  endfacet
  facet normal  1.000000e+000  0.000000e+000  0.000000e+000
    outer loop
      vertex  1.500000e+001 -5.750000e+001  2.500000e+001
      vertex  1.500000e+001 -5.550000e+001 -2.300000e+001
      vertex  1.500000e+001 -5.550000e+001  2.300000e+001
    endloop
  endfacet
  facet normal  9.999999e-001  0.000000e+000  -0.000000e+000
    outer loop
      vertex  1.500000e+001 -5.750000e+001  2.500000e+001
      vertex  1.500000e+001 -5.550000e+001  2.300000e+001
      vertex  1.500000e+001  5.750000e+001  2.500000e+001
    endloop
  endfacet
  facet normal  1.000000e+000  0.000000e+000  0.000000e+000
    outer loop
      vertex  1.500000e+001  5.750000e+001  2.500000e+001
      vertex  1.500000e+001 -5.550000e+001  2.300000e+001
      vertex  1.500000e+001  5.550000e+001  2.300000e+001
    endloop
  endfacet
  facet normal  1.000000e+000  -0.000000e+000  0.000000e+000
    outer loop
      vertex  1.500000e+001  5.750000e+001  2.500000e+001
      vertex  1.500000e+001  5.550000e+001  2.300000e+001
      vertex  1.500000e+001  5.750000e+001 -2.500000e+001
    endloop
  endfacet
  facet normal  1.000000e+000  0.000000e+000  0.000000e+000
    outer loop
      vertex  1.500000e+001  5.750000e+001 -2.500000e+001
      vertex  1.500000e+001  5.550000e+001  2.300000e+001
      vertex  1.500000e+001  5.550000e+001 -2.300000e+001
    endloop
  endfacet
  facet normal  0.000000e+000 -1.950902e-001  9.807853e-001
    outer loop
      vertex  0.000000e+000 -5.000000e+000 -1.575000e+001
      vertex  3.000000e+000 -1.842862e+000 -1.512201e+001
      vertex  0.000000e+000 -1.842862e+000 -1.512201e+001
    endloop
  endfacet
  facet normal  0.000000e+000 -5.555704e-001  8.314695e-001
    outer loop
      vertex  0.000000e+000 -1.842862e+000 -1.512201e+001
      vertex  3.000000e+000 -1.842862e+000 -1.512201e+001
      vertex  3.000000e+000  8.336309e-001 -1.333363e+001
    endloop
  endfacet
  facet normal  0.000000e+000 -5.555704e-001  8.314695e-001
    outer loop
      vertex  0.000000e+000 -1.842862e+000 -1.512201e+001
      vertex  3.000000e+000  8.336309e-001 -1.333363e+001
      vertex  0.000000e+000  8.336309e-001 -1.333363e+001
    endloop
  endfacet
  facet normal  0.000000e+000 -8.314697e-001  5.555702e-001
    outer loop
      vertex  0.000000e+000  8.336309e-001 -1.333363e+001
      vertex  3.000000e+000  8.336309e-001 -1.333363e+001
      vertex  3.000000e+000  2.622006e+000 -1.065714e+001
    endloop
  endfacet
  facet normal  0.000000e+000 -8.314697e-001  5.555702e-001
    outer loop
      vertex  0.000000e+000  8.336309e-001 -1.333363e+001
      vertex  3.000000e+000  2.622006e+000 -1.065714e+001
      vertex  0.000000e+000  2.622006e+000 -1.065714e+001
    endloop
  endfacet
  facet normal  0.000000e+000 -9.807854e-001  1.950904e-001
    outer loop
      vertex  0.000000e+000  2.622006e+000 -1.065714e+001
      vertex  3.000000e+000  2.622006e+000 -1.065714e+001
      vertex  3.000000e+000  3.250000e+000 -7.500000e+000
    endloop
  endfacet
  facet normal  0.000000e+000 -9.807854e-001  1.950904e-001
    outer loop
      vertex  0.000000e+000  2.622006e+000 -1.065714e+001
      vertex  3.000000e+000  3.250000e+000 -7.500000e+000
      vertex  0.000000e+000  3.250000e+000 -7.500000e+000
    endloop
  endfacet
  facet normal  0.000000e+000 -1.950902e-001  9.807853e-001
    outer loop
      vertex  3.000000e+000 -1.842862e+000 -1.512201e+001
      vertex  0.000000e+000 -5.000000e+000 -1.575000e+001
      vertex  3.000000e+000 -5.000000e+000 -1.575000e+001
    endloop
  endfacet
  facet normal  0.000000e+000  1.950903e-001  9.807854e-001
    outer loop
      vertex  3.000000e+000 -5.000000e+000 -1.575000e+001
      vertex  0.000000e+000 -5.000000e+000 -1.575000e+001
      vertex  0.000000e+000 -8.157138e+000 -1.512201e+001
    endloop
  endfacet
  facet normal  -0.000000e+000  1.950903e-001  9.807854e-001
    outer loop
      vertex  3.000000e+000 -5.000000e+000 -1.575000e+001
      vertex  0.000000e+000 -8.157138e+000 -1.512201e+001
      vertex  3.000000e+000 -8.157138e+000 -1.512201e+001
    endloop
  endfacet
  facet normal  0.000000e+000  5.555704e-001  8.314695e-001
    outer loop
      vertex  3.000000e+000 -8.157138e+000 -1.512201e+001
      vertex  0.000000e+000 -8.157138e+000 -1.512201e+001
      vertex  0.000000e+000 -1.083363e+001 -1.333363e+001
    endloop
  endfacet
  facet normal  -0.000000e+000  5.555704e-001  8.314695e-001
    outer loop
      vertex  3.000000e+000 -8.157138e+000 -1.512201e+001
      vertex  0.000000e+000 -1.083363e+001 -1.333363e+001
      vertex  3.000000e+000 -1.083363e+001 -1.333363e+001
    endloop
  endfacet
  facet normal  0.000000e+000  8.314695e-001  5.555704e-001
    outer loop
      vertex  3.000000e+000 -1.083363e+001 -1.333363e+001
      vertex  0.000000e+000 -1.083363e+001 -1.333363e+001
      vertex  0.000000e+000 -1.262201e+001 -1.065714e+001
    endloop
  endfacet
  facet normal  -0.000000e+000  8.314695e-001  5.555704e-001
    outer loop
      vertex  3.000000e+000 -1.083363e+001 -1.333363e+001
      vertex  0.000000e+000 -1.262201e+001 -1.065714e+001
      vertex  3.000000e+000 -1.262201e+001 -1.065714e+001
    endloop
  endfacet
  facet normal  0.000000e+000  9.807854e-001  1.950903e-001
    outer loop
      vertex  3.000000e+000 -1.262201e+001 -1.065714e+001
      vertex  0.000000e+000 -1.262201e+001 -1.065714e+001
      vertex  0.000000e+000 -1.325000e+001 -7.500000e+000
    endloop
  endfacet
  facet normal  -0.000000e+000  9.807854e-001  1.950903e-001
    outer loop
      vertex  3.000000e+000 -1.262201e+001 -1.065714e+001
      vertex  0.000000e+000 -1.325000e+001 -7.500000e+000
      vertex  3.000000e+000 -1.325000e+001 -7.500000e+000
    endloop
  endfacet
  facet normal  0.000000e+000  1.950904e-001 -9.807854e-001
    outer loop
      vertex  0.000000e+000 -5.000000e+000  7.500000e-001
      vertex  3.000000e+000 -8.157138e+000  1.220061e-001
      vertex  0.000000e+000 -8.157138e+000  1.220061e-001
    endloop
  endfacet
  facet normal  0.000000e+000  5.555702e-001 -8.314697e-001
    outer loop
      vertex  0.000000e+000 -8.157138e+000  1.220061e-001
      vertex  3.000000e+000 -8.157138e+000  1.220061e-001
      vertex  3.000000e+000 -1.083363e+001 -1.666369e+000
    endloop
  endfacet
  facet normal  0.000000e+000  5.555702e-001 -8.314697e-001
    outer loop
      vertex  0.000000e+000 -8.157138e+000  1.220061e-001
      vertex  3.000000e+000 -1.083363e+001 -1.666369e+000
      vertex  0.000000e+000 -1.083363e+001 -1.666369e+000
    endloop
  endfacet
  facet normal  0.000000e+000  8.314695e-001 -5.555704e-001
    outer loop
      vertex  0.000000e+000 -1.083363e+001 -1.666369e+000
      vertex  3.000000e+000 -1.083363e+001 -1.666369e+000
      vertex  3.000000e+000 -1.262201e+001 -4.342862e+000
    endloop
  endfacet
  facet normal  0.000000e+000  8.314695e-001 -5.555704e-001
    outer loop
      vertex  0.000000e+000 -1.083363e+001 -1.666369e+000
      vertex  3.000000e+000 -1.262201e+001 -4.342862e+000
      vertex  0.000000e+000 -1.262201e+001 -4.342862e+000
    endloop
  endfacet
  facet normal  0.000000e+000  9.807853e-001 -1.950902e-001
    outer loop
      vertex  0.000000e+000 -1.262201e+001 -4.342862e+000
      vertex  3.000000e+000 -1.262201e+001 -4.342862e+000
      vertex  3.000000e+000 -1.325000e+001 -7.500000e+000
    endloop
  endfacet
  facet normal  0.000000e+000  9.807853e-001 -1.950902e-001
    outer loop
      vertex  0.000000e+000 -1.262201e+001 -4.342862e+000
      vertex  3.000000e+000 -1.325000e+001 -7.500000e+000
      vertex  0.000000e+000 -1.325000e+001 -7.500000e+000
    endloop
  endfacet
  facet normal  0.000000e+000  1.950904e-001 -9.807854e-001
    outer loop
      vertex  3.000000e+000 -8.157138e+000  1.220061e-001
      vertex  0.000000e+000 -5.000000e+000  7.500000e-001
      vertex  3.000000e+000 -5.000000e+000  7.500000e-001
    endloop
  endfacet
  facet normal  -0.000000e+000 -1.950903e-001 -9.807853e-001
    outer loop
      vertex  3.000000e+000 -5.000000e+000  7.500000e-001
      vertex  0.000000e+000 -5.000000e+000  7.500000e-001
      vertex  0.000000e+000 -1.842862e+000  1.220061e-001
    endloop
  endfacet
  facet normal  0.000000e+000 -1.950903e-001 -9.807853e-001
    outer loop
      vertex  3.000000e+000 -5.000000e+000  7.500000e-001
      vertex  0.000000e+000 -1.842862e+000  1.220061e-001
      vertex  3.000000e+000 -1.842862e+000  1.220061e-001
    endloop
  endfacet
  facet normal  -0.000000e+000 -5.555702e-001 -8.314697e-001
    outer loop
      vertex  3.000000e+000 -1.842862e+000  1.220061e-001
      vertex  0.000000e+000 -1.842862e+000  1.220061e-001
      vertex  0.000000e+000  8.336309e-001 -1.666369e+000
    endloop
  endfacet
  facet normal  0.000000e+000 -5.555702e-001 -8.314697e-001
    outer loop
      vertex  3.000000e+000 -1.842862e+000  1.220061e-001
      vertex  0.000000e+000  8.336309e-001 -1.666369e+000
      vertex  3.000000e+000  8.336309e-001 -1.666369e+000
    endloop
  endfacet
  facet normal  -0.000000e+000 -8.314697e-001 -5.555702e-001
    outer loop
      vertex  3.000000e+000  8.336309e-001 -1.666369e+000
      vertex  0.000000e+000  8.336309e-001 -1.666369e+000
      vertex  0.000000e+000  2.622006e+000 -4.342862e+000
    endloop
  endfacet
  facet normal  0.000000e+000 -8.314697e-001 -5.555702e-001
    outer loop
      vertex  3.000000e+000  8.336309e-001 -1.666369e+000
      vertex  0.000000e+000  2.622006e+000 -4.342862e+000
      vertex  3.000000e+000  2.622006e+000 -4.342862e+000
    endloop
  endfacet
  facet normal  -0.000000e+000 -9.807853e-001 -1.950903e-001
    outer loop
      vertex  3.000000e+000  2.622006e+000 -4.342862e+000
      vertex  0.000000e+000  2.622006e+000 -4.342862e+000
      vertex  0.000000e+000  3.250000e+000 -7.500000e+000
    endloop
  endfacet
  facet normal  0.000000e+000 -9.807853e-001 -1.950903e-001
    outer loop
      vertex  3.000000e+000  2.622006e+000 -4.342862e+000
      vertex  0.000000e+000  3.250000e+000 -7.500000e+000
      vertex  3.000000e+000  3.250000e+000 -7.500000e+000
    endloop
  endfacet
  facet normal  0.000000e+000 -1.564344e-001  9.876884e-001
    outer loop
      vertex  0.000000e+000  3.350000e+001 -1.400000e+001
      vertex  3.000000e+000  3.782624e+001 -1.331479e+001
      vertex  0.000000e+000  3.782624e+001 -1.331479e+001
    endloop
  endfacet
  facet normal  0.000000e+000 -4.539906e-001  8.910065e-001
    outer loop
      vertex  0.000000e+000  3.782624e+001 -1.331479e+001
      vertex  3.000000e+000  3.782624e+001 -1.331479e+001
      vertex  3.000000e+000  4.172899e+001 -1.132624e+001
    endloop
  endfacet
  facet normal  0.000000e+000 -4.539906e-001  8.910065e-001
    outer loop
      vertex  0.000000e+000  3.782624e+001 -1.331479e+001
      vertex  3.000000e+000  4.172899e+001 -1.132624e+001
      vertex  0.000000e+000  4.172899e+001 -1.132624e+001
    endloop
  endfacet
  facet normal  0.000000e+000 -7.071068e-001  7.071068e-001
    outer loop
      vertex  0.000000e+000  4.172899e+001 -1.132624e+001
      vertex  3.000000e+000  4.172899e+001 -1.132624e+001
      vertex  3.000000e+000  4.482624e+001 -8.228993e+000
    endloop
  endfacet
  facet normal  0.000000e+000 -7.071068e-001  7.071068e-001
    outer loop
      vertex  0.000000e+000  4.172899e+001 -1.132624e+001
      vertex  3.000000e+000  4.482624e+001 -8.228993e+000
      vertex  0.000000e+000  4.482624e+001 -8.228993e+000
    endloop
  endfacet
  facet normal  0.000000e+000 -8.910062e-001  4.539910e-001
    outer loop
      vertex  0.000000e+000  4.482624e+001 -8.228993e+000
      vertex  3.000000e+000  4.482624e+001 -8.228993e+000
      vertex  3.000000e+000  4.681479e+001 -4.326238e+000
    endloop
  endfacet
  facet normal  0.000000e+000 -8.910062e-001  4.539910e-001
    outer loop
      vertex  0.000000e+000  4.482624e+001 -8.228993e+000
      vertex  3.000000e+000  4.681479e+001 -4.326238e+000
      vertex  0.000000e+000  4.681479e+001 -4.326238e+000
    endloop
  endfacet
  facet normal  0.000000e+000 -9.876884e-001  1.564341e-001
    outer loop
      vertex  0.000000e+000  4.681479e+001 -4.326238e+000
      vertex  3.000000e+000  4.681479e+001 -4.326238e+000
      vertex  3.000000e+000  4.750000e+001  0.000000e+000
    endloop
  endfacet
  facet normal  0.000000e+000 -9.876884e-001  1.564341e-001
    outer loop
      vertex  0.000000e+000  4.681479e+001 -4.326238e+000
      vertex  3.000000e+000  4.750000e+001  0.000000e+000
      vertex  0.000000e+000  4.750000e+001  0.000000e+000
    endloop
  endfacet
  facet normal  0.000000e+000 -1.564344e-001  9.876884e-001
    outer loop
      vertex  3.000000e+000  3.782624e+001 -1.331479e+001
      vertex  0.000000e+000  3.350000e+001 -1.400000e+001
      vertex  3.000000e+000  3.350000e+001 -1.400000e+001
    endloop
  endfacet
  facet normal  0.000000e+000  1.564343e-001  9.876883e-001
    outer loop
      vertex  3.000000e+000  3.350000e+001 -1.400000e+001
      vertex  0.000000e+000  3.350000e+001 -1.400000e+001
      vertex  0.000000e+000  2.917376e+001 -1.331479e+001
    endloop
  endfacet
  facet normal  -0.000000e+000  1.564343e-001  9.876883e-001
    outer loop
      vertex  3.000000e+000  3.350000e+001 -1.400000e+001
      vertex  0.000000e+000  2.917376e+001 -1.331479e+001
      vertex  3.000000e+000  2.917376e+001 -1.331479e+001
    endloop
  endfacet
  facet normal  0.000000e+000  4.539906e-001  8.910065e-001
    outer loop
      vertex  3.000000e+000  2.917376e+001 -1.331479e+001
      vertex  0.000000e+000  2.917376e+001 -1.331479e+001
      vertex  0.000000e+000  2.527101e+001 -1.132624e+001
    endloop
  endfacet
  facet normal  -0.000000e+000  4.539906e-001  8.910065e-001
    outer loop
      vertex  3.000000e+000  2.917376e+001 -1.331479e+001
      vertex  0.000000e+000  2.527101e+001 -1.132624e+001
      vertex  3.000000e+000  2.527101e+001 -1.132624e+001
    endloop
  endfacet
  facet normal  0.000000e+000  7.071068e-001  7.071068e-001
    outer loop
      vertex  3.000000e+000  2.527101e+001 -1.132624e+001
      vertex  0.000000e+000  2.527101e+001 -1.132624e+001
      vertex  0.000000e+000  2.217376e+001 -8.228993e+000
    endloop
  endfacet
  facet normal  -0.000000e+000  7.071068e-001  7.071068e-001
    outer loop
      vertex  3.000000e+000  2.527101e+001 -1.132624e+001
      vertex  0.000000e+000  2.217376e+001 -8.228993e+000
      vertex  3.000000e+000  2.217376e+001 -8.228993e+000
    endloop
  endfacet
  facet normal  0.000000e+000  8.910066e-001  4.539903e-001
    outer loop
      vertex  3.000000e+000  2.217376e+001 -8.228993e+000
      vertex  0.000000e+000  2.217376e+001 -8.228993e+000
      vertex  0.000000e+000  2.018521e+001 -4.326238e+000
    endloop
  endfacet
  facet normal  -0.000000e+000  8.910066e-001  4.539903e-001
    outer loop
      vertex  3.000000e+000  2.217376e+001 -8.228993e+000
      vertex  0.000000e+000  2.018521e+001 -4.326238e+000
      vertex  3.000000e+000  2.018521e+001 -4.326238e+000
    endloop
  endfacet
  facet normal  0.000000e+000  9.876884e-001  1.564346e-001
    outer loop
      vertex  3.000000e+000  2.018521e+001 -4.326238e+000
      vertex  0.000000e+000  2.018521e+001 -4.326238e+000
      vertex  0.000000e+000  1.950000e+001  1.714506e-015
    endloop
  endfacet
  facet normal  -0.000000e+000  9.876884e-001  1.564346e-001
    outer loop
      vertex  3.000000e+000  2.018521e+001 -4.326238e+000
      vertex  0.000000e+000  1.950000e+001  1.714506e-015
      vertex  3.000000e+000  1.950000e+001  1.714506e-015
    endloop
  endfacet
  facet normal  0.000000e+000  1.564343e-001 -9.876883e-001
    outer loop
      vertex  0.000000e+000  3.350000e+001  1.400000e+001
      vertex  3.000000e+000  2.917376e+001  1.331479e+001
      vertex  0.000000e+000  2.917376e+001  1.331479e+001
    endloop
  endfacet
  facet normal  0.000000e+000  4.539906e-001 -8.910065e-001
    outer loop
      vertex  0.000000e+000  2.917376e+001  1.331479e+001
      vertex  3.000000e+000  2.917376e+001  1.331479e+001
      vertex  3.000000e+000  2.527101e+001  1.132624e+001
    endloop
  endfacet
  facet normal  0.000000e+000  4.539906e-001 -8.910065e-001
    outer loop
      vertex  0.000000e+000  2.917376e+001  1.331479e+001
      vertex  3.000000e+000  2.527101e+001  1.132624e+001
      vertex  0.000000e+000  2.527101e+001  1.132624e+001
    endloop
  endfacet
  facet normal  0.000000e+000  7.071068e-001 -7.071068e-001
    outer loop
      vertex  0.000000e+000  2.527101e+001  1.132624e+001
      vertex  3.000000e+000  2.527101e+001  1.132624e+001
      vertex  3.000000e+000  2.217376e+001  8.228993e+000
    endloop
  endfacet
  facet normal  0.000000e+000  7.071068e-001 -7.071068e-001
    outer loop
      vertex  0.000000e+000  2.527101e+001  1.132624e+001
      vertex  3.000000e+000  2.217376e+001  8.228993e+000
      vertex  0.000000e+000  2.217376e+001  8.228993e+000
    endloop
  endfacet
  facet normal  0.000000e+000  8.910066e-001 -4.539903e-001
    outer loop
      vertex  0.000000e+000  2.217376e+001  8.228993e+000
      vertex  3.000000e+000  2.217376e+001  8.228993e+000
      vertex  3.000000e+000  2.018521e+001  4.326238e+000
    endloop
  endfacet
  facet normal  0.000000e+000  8.910066e-001 -4.539903e-001
    outer loop
      vertex  0.000000e+000  2.217376e+001  8.228993e+000
      vertex  3.000000e+000  2.018521e+001  4.326238e+000
      vertex  0.000000e+000  2.018521e+001  4.326238e+000
    endloop
  endfacet
  facet normal  0.000000e+000  9.876884e-001 -1.564346e-001
    outer loop
      vertex  0.000000e+000  2.018521e+001  4.326238e+000
      vertex  3.000000e+000  2.018521e+001  4.326238e+000
      vertex  3.000000e+000  1.950000e+001  1.714506e-015
    endloop
  endfacet
  facet normal  0.000000e+000  9.876884e-001 -1.564346e-001
    outer loop
      vertex  0.000000e+000  2.018521e+001  4.326238e+000
      vertex  3.000000e+000  1.950000e+001  1.714506e-015
      vertex  0.000000e+000  1.950000e+001  1.714506e-015
    endloop
  endfacet
  facet normal  0.000000e+000  1.564343e-001 -9.876883e-001
    outer loop
      vertex  3.000000e+000  2.917376e+001  1.331479e+001
      vertex  0.000000e+000  3.350000e+001  1.400000e+001
      vertex  3.000000e+000  3.350000e+001  1.400000e+001
    endloop
  endfacet
  facet normal  -0.000000e+000 -1.564344e-001 -9.876884e-001
    outer loop
      vertex  3.000000e+000  3.350000e+001  1.400000e+001
      vertex  0.000000e+000  3.350000e+001  1.400000e+001
      vertex  0.000000e+000  3.782624e+001  1.331479e+001
    endloop
  endfacet
  facet normal  0.000000e+000 -1.564344e-001 -9.876884e-001
    outer loop
      vertex  3.000000e+000  3.350000e+001  1.400000e+001
      vertex  0.000000e+000  3.782624e+001  1.331479e+001
      vertex  3.000000e+000  3.782624e+001  1.331479e+001
    endloop
  endfacet
  facet normal  -0.000000e+000 -4.539906e-001 -8.910065e-001
    outer loop
      vertex  3.000000e+000  3.782624e+001  1.331479e+001
      vertex  0.000000e+000  3.782624e+001  1.331479e+001
      vertex  0.000000e+000  4.172899e+001  1.132624e+001
    endloop
  endfacet
  facet normal  0.000000e+000 -4.539906e-001 -8.910065e-001
    outer loop
      vertex  3.000000e+000  3.782624e+001  1.331479e+001
      vertex  0.000000e+000  4.172899e+001  1.132624e+001
      vertex  3.000000e+000  4.172899e+001  1.132624e+001
    endloop
  endfacet
  facet normal  -0.000000e+000 -7.071068e-001 -7.071068e-001
    outer loop
      vertex  3.000000e+000  4.172899e+001  1.132624e+001
      vertex  0.000000e+000  4.172899e+001  1.132624e+001
      vertex  0.000000e+000  4.482624e+001  8.228993e+000
    endloop
  endfacet
  facet normal  0.000000e+000 -7.071068e-001 -7.071068e-001
    outer loop
      vertex  3.000000e+000  4.172899e+001  1.132624e+001
      vertex  0.000000e+000  4.482624e+001  8.228993e+000
      vertex  3.000000e+000  4.482624e+001  8.228993e+000
    endloop
  endfacet
  facet normal  -0.000000e+000 -8.910062e-001 -4.539910e-001
    outer loop
      vertex  3.000000e+000  4.482624e+001  8.228993e+000
      vertex  0.000000e+000  4.482624e+001  8.228993e+000
      vertex  0.000000e+000  4.681479e+001  4.326238e+000
    endloop
  endfacet
  facet normal  0.000000e+000 -8.910062e-001 -4.539910e-001
    outer loop
      vertex  3.000000e+000  4.482624e+001  8.228993e+000
      vertex  0.000000e+000  4.681479e+001  4.326238e+000
      vertex  3.000000e+000  4.681479e+001  4.326238e+000
    endloop
  endfacet
  facet normal  -0.000000e+000 -9.876884e-001 -1.564341e-001
    outer loop
      vertex  3.000000e+000  4.681479e+001  4.326238e+000
      vertex  0.000000e+000  4.681479e+001  4.326238e+000
      vertex  0.000000e+000  4.750000e+001  0.000000e+000
    endloop
  endfacet
  facet normal  0.000000e+000 -9.876884e-001 -1.564341e-001
    outer loop
      vertex  3.000000e+000  4.681479e+001  4.326238e+000
      vertex  0.000000e+000  4.750000e+001  0.000000e+000
      vertex  3.000000e+000  4.750000e+001  0.000000e+000
    endloop
  endfacet
  facet normal  0.000000e+000  0.000000e+000 -1.000000e+000
    outer loop
      vertex  0.000000e+000 -1.650000e+001  1.700000e+001
      vertex  0.000000e+000  1.150000e+001  1.700000e+001
      vertex  3.000000e+000 -1.650000e+001  1.700000e+001
    endloop
  endfacet
  facet normal  0.000000e+000  0.000000e+000 -1.000000e+000
    outer loop
      vertex  3.000000e+000 -1.650000e+001  1.700000e+001
      vertex  0.000000e+000  1.150000e+001  1.700000e+001
      vertex  3.000000e+000  1.150000e+001  1.700000e+001
    endloop
  endfacet
  facet normal  0.000000e+000  1.000000e+000  0.000000e+000
    outer loop
      vertex  0.000000e+000 -1.650000e+001  1.700000e+001
      vertex  3.000000e+000 -1.650000e+001  1.700000e+001
      vertex  0.000000e+000 -1.650000e+001  4.000000e+000
    endloop
  endfacet
  facet normal  0.000000e+000  1.000000e+000  0.000000e+000
    outer loop
      vertex  0.000000e+000 -1.650000e+001  4.000000e+000
      vertex  3.000000e+000 -1.650000e+001  1.700000e+001
      vertex  3.000000e+000 -1.650000e+001  4.000000e+000
    endloop
  endfacet
  facet normal  0.000000e+000 -1.000000e+000  0.000000e+000
    outer loop
      vertex  0.000000e+000  1.150000e+001  4.000000e+000
      vertex  3.000000e+000  1.150000e+001  4.000000e+000
      vertex  0.000000e+000  1.150000e+001  1.700000e+001
    endloop
  endfacet
  facet normal  0.000000e+000 -1.000000e+000  0.000000e+000
    outer loop
      vertex  0.000000e+000  1.150000e+001  1.700000e+001
      vertex  3.000000e+000  1.150000e+001  4.000000e+000
      vertex  3.000000e+000  1.150000e+001  1.700000e+001
    endloop
  endfacet
  facet normal  0.000000e+000  0.000000e+000  1.000000e+000
    outer loop
      vertex  0.000000e+000  1.150000e+001  4.000000e+000
      vertex  0.000000e+000 -1.650000e+001  4.000000e+000
      vertex  3.000000e+000  1.150000e+001  4.000000e+000
    endloop
  endfacet
  facet normal  0.000000e+000  0.000000e+000  1.000000e+000
    outer loop
      vertex  3.000000e+000  1.150000e+001  4.000000e+000
      vertex  0.000000e+000 -1.650000e+001  4.000000e+000
      vertex  3.000000e+000 -1.650000e+001  4.000000e+000
    endloop
  endfacet
  facet normal  0.000000e+000 -3.420202e-001  9.396927e-001
    outer loop
      vertex  0.000000e+000 -3.319872e+001 -1.107909e+001
      vertex  3.000000e+000 -2.952726e+001 -9.742785e+000
      vertex  0.000000e+000 -2.952726e+001 -9.742785e+000
    endloop
  endfacet
  facet normal  0.000000e+000 -6.427876e-001  7.660445e-001
    outer loop
      vertex  0.000000e+000 -2.952726e+001 -9.742785e+000
      vertex  3.000000e+000 -2.952726e+001 -9.742785e+000
      vertex  3.000000e+000 -2.653426e+001 -7.231360e+000
    endloop
  endfacet
  facet normal  0.000000e+000 -6.427876e-001  7.660445e-001
    outer loop
      vertex  0.000000e+000 -2.952726e+001 -9.742785e+000
      vertex  3.000000e+000 -2.653426e+001 -7.231360e+000
      vertex  0.000000e+000 -2.653426e+001 -7.231360e+000
    endloop
  endfacet
  facet normal  0.000000e+000 -8.660253e-001  5.000001e-001
    outer loop
      vertex  0.000000e+000 -2.653426e+001 -7.231360e+000
      vertex  3.000000e+000 -2.653426e+001 -7.231360e+000
      vertex  3.000000e+000 -2.458071e+001 -3.847727e+000
    endloop
  endfacet
  facet normal  0.000000e+000 -8.660253e-001  5.000001e-001
    outer loop
      vertex  0.000000e+000 -2.653426e+001 -7.231360e+000
      vertex  3.000000e+000 -2.458071e+001 -3.847727e+000
      vertex  0.000000e+000 -2.458071e+001 -3.847727e+000
    endloop
  endfacet
  facet normal  0.000000e+000 -9.848078e-001  1.736480e-001
    outer loop
      vertex  0.000000e+000 -2.458071e+001 -3.847727e+000
      vertex  3.000000e+000 -2.458071e+001 -3.847727e+000
      vertex  3.000000e+000 -2.390226e+001  0.000000e+000
    endloop
  endfacet
  facet normal  0.000000e+000 -9.848078e-001  1.736480e-001
    outer loop
      vertex  0.000000e+000 -2.458071e+001 -3.847727e+000
      vertex  3.000000e+000 -2.390226e+001  0.000000e+000
      vertex  0.000000e+000 -2.390226e+001  0.000000e+000
    endloop
  endfacet
  facet normal  0.000000e+000 -3.420202e-001  9.396927e-001
    outer loop
      vertex  3.000000e+000 -2.952726e+001 -9.742785e+000
      vertex  0.000000e+000 -3.319872e+001 -1.107909e+001
      vertex  3.000000e+000 -3.319872e+001 -1.107909e+001
    endloop
  endfacet
  facet normal  0.000000e+000  0.000000e+000  9.999999e-001
    outer loop
      vertex  3.000000e+000 -3.319872e+001 -1.107909e+001
      vertex  0.000000e+000 -3.319872e+001 -1.107909e+001
      vertex  0.000000e+000 -3.710580e+001 -1.107909e+001
    endloop
  endfacet
  facet normal  0.000000e+000  0.000000e+000  9.999999e-001
    outer loop
      vertex  3.000000e+000 -3.319872e+001 -1.107909e+001
      vertex  0.000000e+000 -3.710580e+001 -1.107909e+001
      vertex  3.000000e+000 -3.710580e+001 -1.107909e+001
    endloop
  endfacet
  facet normal  0.000000e+000  3.420202e-001  9.396927e-001
    outer loop
      vertex  3.000000e+000 -3.710580e+001 -1.107909e+001
      vertex  0.000000e+000 -3.710580e+001 -1.107909e+001
      vertex  0.000000e+000 -4.077726e+001 -9.742785e+000
    endloop
  endfacet
  facet normal  -0.000000e+000  3.420202e-001  9.396927e-001
    outer loop
      vertex  3.000000e+000 -3.710580e+001 -1.107909e+001
      vertex  0.000000e+000 -4.077726e+001 -9.742785e+000
      vertex  3.000000e+000 -4.077726e+001 -9.742785e+000
    endloop
  endfacet
  facet normal  0.000000e+000  6.427876e-001  7.660445e-001
    outer loop
      vertex  3.000000e+000 -4.077726e+001 -9.742785e+000
      vertex  0.000000e+000 -4.077726e+001 -9.742785e+000
      vertex  0.000000e+000 -4.377026e+001 -7.231360e+000
    endloop
  endfacet
  facet normal  -0.000000e+000  6.427876e-001  7.660445e-001
    outer loop
      vertex  3.000000e+000 -4.077726e+001 -9.742785e+000
      vertex  0.000000e+000 -4.377026e+001 -7.231360e+000
      vertex  3.000000e+000 -4.377026e+001 -7.231360e+000
    endloop
  endfacet
  facet normal  0.000000e+000  8.660256e-001  4.999998e-001
    outer loop
      vertex  3.000000e+000 -4.377026e+001 -7.231360e+000
      vertex  0.000000e+000 -4.377026e+001 -7.231360e+000
      vertex  0.000000e+000 -4.572380e+001 -3.847727e+000
    endloop
  endfacet
  facet normal  -0.000000e+000  8.660256e-001  4.999998e-001
    outer loop
      vertex  3.000000e+000 -4.377026e+001 -7.231360e+000
      vertex  0.000000e+000 -4.572380e+001 -3.847727e+000
      vertex  3.000000e+000 -4.572380e+001 -3.847727e+000
    endloop
  endfacet
  facet normal  0.000000e+000  9.848077e-001  1.736485e-001
    outer loop
      vertex  3.000000e+000 -4.572380e+001 -3.847727e+000
      vertex  0.000000e+000 -4.572380e+001 -3.847727e+000
      vertex  0.000000e+000 -4.640226e+001  1.377728e-015
    endloop
  endfacet
  facet normal  -0.000000e+000  9.848077e-001  1.736485e-001
    outer loop
      vertex  3.000000e+000 -4.572380e+001 -3.847727e+000
      vertex  0.000000e+000 -4.640226e+001  1.377728e-015
      vertex  3.000000e+000 -4.640226e+001  1.377728e-015
    endloop
  endfacet
  facet normal  0.000000e+000  3.420202e-001 -9.396927e-001
    outer loop
      vertex  0.000000e+000 -3.710580e+001  1.107909e+001
      vertex  3.000000e+000 -4.077726e+001  9.742785e+000
      vertex  0.000000e+000 -4.077726e+001  9.742785e+000
    endloop
  endfacet
  facet normal  0.000000e+000  6.427876e-001 -7.660445e-001
    outer loop
      vertex  0.000000e+000 -4.077726e+001  9.742785e+000
      vertex  3.000000e+000 -4.077726e+001  9.742785e+000
      vertex  3.000000e+000 -4.377026e+001  7.231360e+000
    endloop
  endfacet
  facet normal  0.000000e+000  6.427876e-001 -7.660445e-001
    outer loop
      vertex  0.000000e+000 -4.077726e+001  9.742785e+000
      vertex  3.000000e+000 -4.377026e+001  7.231360e+000
      vertex  0.000000e+000 -4.377026e+001  7.231360e+000
    endloop
  endfacet
  facet normal  0.000000e+000  8.660256e-001 -4.999998e-001
    outer loop
      vertex  0.000000e+000 -4.377026e+001  7.231360e+000
      vertex  3.000000e+000 -4.377026e+001  7.231360e+000
      vertex  3.000000e+000 -4.572380e+001  3.847727e+000
    endloop
  endfacet
  facet normal  0.000000e+000  8.660256e-001 -4.999998e-001
    outer loop
      vertex  0.000000e+000 -4.377026e+001  7.231360e+000
      vertex  3.000000e+000 -4.572380e+001  3.847727e+000
      vertex  0.000000e+000 -4.572380e+001  3.847727e+000
    endloop
  endfacet
  facet normal  0.000000e+000  9.848077e-001 -1.736485e-001
    outer loop
      vertex  0.000000e+000 -4.572380e+001  3.847727e+000
      vertex  3.000000e+000 -4.572380e+001  3.847727e+000
      vertex  3.000000e+000 -4.640226e+001  1.377728e-015
    endloop
  endfacet
  facet normal  0.000000e+000  9.848077e-001 -1.736485e-001
    outer loop
      vertex  0.000000e+000 -4.572380e+001  3.847727e+000
      vertex  3.000000e+000 -4.640226e+001  1.377728e-015
      vertex  0.000000e+000 -4.640226e+001  1.377728e-015
    endloop
  endfacet
  facet normal  0.000000e+000  3.420202e-001 -9.396927e-001
    outer loop
      vertex  3.000000e+000 -4.077726e+001  9.742785e+000
      vertex  0.000000e+000 -3.710580e+001  1.107909e+001
      vertex  3.000000e+000 -3.710580e+001  1.107909e+001
    endloop
  endfacet
  facet normal  0.000000e+000  0.000000e+000 -9.999999e-001
    outer loop
      vertex  3.000000e+000 -3.710580e+001  1.107909e+001
      vertex  0.000000e+000 -3.710580e+001  1.107909e+001
      vertex  0.000000e+000 -3.319872e+001  1.107909e+001
    endloop
  endfacet
  facet normal  0.000000e+000  0.000000e+000 -9.999999e-001
    outer loop
      vertex  3.000000e+000 -3.710580e+001  1.107909e+001
      vertex  0.000000e+000 -3.319872e+001  1.107909e+001
      vertex  3.000000e+000 -3.319872e+001  1.107909e+001
    endloop
  endfacet
  facet normal  -0.000000e+000 -3.420202e-001 -9.396927e-001
    outer loop
      vertex  3.000000e+000 -3.319872e+001  1.107909e+001
      vertex  0.000000e+000 -3.319872e+001  1.107909e+001
      vertex  0.000000e+000 -2.952726e+001  9.742785e+000
    endloop
  endfacet
  facet normal  0.000000e+000 -3.420202e-001 -9.396927e-001
    outer loop
      vertex  3.000000e+000 -3.319872e+001  1.107909e+001
      vertex  0.000000e+000 -2.952726e+001  9.742785e+000
      vertex  3.000000e+000 -2.952726e+001  9.742785e+000
    endloop
  endfacet
  facet normal  -0.000000e+000 -6.427876e-001 -7.660445e-001
    outer loop
      vertex  3.000000e+000 -2.952726e+001  9.742785e+000
      vertex  0.000000e+000 -2.952726e+001  9.742785e+000
      vertex  0.000000e+000 -2.653426e+001  7.231360e+000
    endloop
  endfacet
  facet normal  0.000000e+000 -6.427876e-001 -7.660445e-001
    outer loop
      vertex  3.000000e+000 -2.952726e+001  9.742785e+000
      vertex  0.000000e+000 -2.653426e+001  7.231360e+000
      vertex  3.000000e+000 -2.653426e+001  7.231360e+000
    endloop
  endfacet
  facet normal  -0.000000e+000 -8.660253e-001 -5.000001e-001
    outer loop
      vertex  3.000000e+000 -2.653426e+001  7.231360e+000
      vertex  0.000000e+000 -2.653426e+001  7.231360e+000
      vertex  0.000000e+000 -2.458071e+001  3.847727e+000
    endloop
  endfacet
  facet normal  0.000000e+000 -8.660253e-001 -5.000001e-001
    outer loop
      vertex  3.000000e+000 -2.653426e+001  7.231360e+000
      vertex  0.000000e+000 -2.458071e+001  3.847727e+000
      vertex  3.000000e+000 -2.458071e+001  3.847727e+000
    endloop
  endfacet
  facet normal  -0.000000e+000 -9.848078e-001 -1.736480e-001
    outer loop
      vertex  3.000000e+000 -2.458071e+001  3.847727e+000
      vertex  0.000000e+000 -2.458071e+001  3.847727e+000
      vertex  0.000000e+000 -2.390226e+001  0.000000e+000
    endloop
  endfacet
  facet normal  0.000000e+000 -9.848078e-001 -1.736480e-001
    outer loop
      vertex  3.000000e+000 -2.458071e+001  3.847727e+000
      vertex  0.000000e+000 -2.390226e+001  0.000000e+000
      vertex  3.000000e+000 -2.390226e+001  0.000000e+000
    endloop
  endfacet
  facet normal  1.000000e+000  -0.000000e+000  0.000000e+000
    outer loop
      vertex  3.000000e+000 -1.650000e+001  1.700000e+001
      vertex  3.000000e+000 -3.319872e+001  1.107909e+001
      vertex  3.000000e+000 -2.952726e+001  9.742785e+000
    endloop
  endfacet
  facet normal  1.000000e+000  0.000000e+000  0.000000e+000
    outer loop
      vertex  3.000000e+000 -3.319872e+001 -1.107909e+001
      vertex  3.000000e+000 -1.083363e+001 -1.333363e+001
      vertex  3.000000e+000 -1.262201e+001 -1.065714e+001
    endloop
  endfacet
  facet normal  9.999999e-001  -0.000000e+000  0.000000e+000
    outer loop
      vertex  3.000000e+000  1.150000e+001  4.000000e+000
      vertex  3.000000e+000 -1.650000e+001  4.000000e+000
      vertex  3.000000e+000 -1.842862e+000  1.220061e-001
    endloop
  endfacet
  facet normal  1.000000e+000  -0.000000e+000  0.000000e+000
    outer loop
      vertex  3.000000e+000  1.150000e+001  4.000000e+000
      vertex  3.000000e+000 -1.842862e+000  1.220061e-001
      vertex  3.000000e+000  1.950000e+001  1.714506e-015
    endloop
  endfacet
  facet normal  1.000000e+000  0.000000e+000  -0.000000e+000
    outer loop
      vertex  3.000000e+000  1.150000e+001  4.000000e+000
      vertex  3.000000e+000  1.950000e+001  1.714506e-015
      vertex  3.000000e+000  2.018521e+001  4.326238e+000
    endloop
  endfacet
  facet normal  1.000000e+000  0.000000e+000  -0.000000e+000
    outer loop
      vertex  3.000000e+000  1.150000e+001  4.000000e+000
      vertex  3.000000e+000  2.018521e+001  4.326238e+000
      vertex  3.000000e+000  2.217376e+001  8.228993e+000
    endloop
  endfacet
  facet normal  1.000000e+000  0.000000e+000  -0.000000e+000
    outer loop
      vertex  3.000000e+000  1.150000e+001  4.000000e+000
      vertex  3.000000e+000  2.217376e+001  8.228993e+000
      vertex  3.000000e+000  2.527101e+001  1.132624e+001
    endloop
  endfacet
  facet normal  1.000000e+000  0.000000e+000  0.000000e+000
    outer loop
      vertex  3.000000e+000 -1.650000e+001  4.000000e+000
      vertex  3.000000e+000 -1.650000e+001  1.700000e+001
      vertex  3.000000e+000 -2.952726e+001  9.742785e+000
    endloop
  endfacet
  facet normal  1.000000e+000  0.000000e+000  0.000000e+000
    outer loop
      vertex  3.000000e+000 -1.650000e+001  4.000000e+000
      vertex  3.000000e+000 -2.952726e+001  9.742785e+000
      vertex  3.000000e+000 -2.653426e+001  7.231360e+000
    endloop
  endfacet
  facet normal  9.999999e-001  0.000000e+000  0.000000e+000
    outer loop
      vertex  3.000000e+000 -1.650000e+001  4.000000e+000
      vertex  3.000000e+000 -2.653426e+001  7.231360e+000
      vertex  3.000000e+000 -2.458071e+001  3.847727e+000
    endloop
  endfacet
  facet normal  9.999999e-001  -0.000000e+000  0.000000e+000
    outer loop
      vertex  3.000000e+000 -1.650000e+001  4.000000e+000
      vertex  3.000000e+000 -2.458071e+001  3.847727e+000
      vertex  3.000000e+000 -5.000000e+000  7.500000e-001
    endloop
  endfacet
  facet normal  1.000000e+000  -0.000000e+000  -0.000000e+000
    outer loop
      vertex  3.000000e+000 -1.650000e+001  4.000000e+000
      vertex  3.000000e+000 -5.000000e+000  7.500000e-001
      vertex  3.000000e+000 -1.842862e+000  1.220061e-001
    endloop
  endfacet
  facet normal  1.000000e+000  -0.000000e+000  0.000000e+000
    outer loop
      vertex  3.000000e+000  5.550000e+001  2.300000e+001
      vertex  3.000000e+000 -5.550000e+001  2.300000e+001
      vertex  3.000000e+000  1.150000e+001  1.700000e+001
    endloop
  endfacet
  facet normal  1.000000e+000  -0.000000e+000  0.000000e+000
    outer loop
      vertex  3.000000e+000  5.550000e+001  2.300000e+001
      vertex  3.000000e+000  1.150000e+001  1.700000e+001
      vertex  3.000000e+000  3.350000e+001  1.400000e+001
    endloop
  endfacet
  facet normal  1.000000e+000  -0.000000e+000  0.000000e+000
    outer loop
      vertex  3.000000e+000  5.550000e+001  2.300000e+001
      vertex  3.000000e+000  3.350000e+001  1.400000e+001
      vertex  3.000000e+000  3.782624e+001  1.331479e+001
    endloop
  endfacet
  facet normal  9.999999e-001  -0.000000e+000  0.000000e+000
    outer loop
      vertex  3.000000e+000  5.550000e+001  2.300000e+001
      vertex  3.000000e+000  3.782624e+001  1.331479e+001
      vertex  3.000000e+000  4.172899e+001  1.132624e+001
    endloop
  endfacet
  facet normal  1.000000e+000  -0.000000e+000  0.000000e+000
    outer loop
      vertex  3.000000e+000  5.550000e+001  2.300000e+001
      vertex  3.000000e+000  4.172899e+001  1.132624e+001
      vertex  3.000000e+000  4.482624e+001  8.228993e+000
    endloop
  endfacet
  facet normal  1.000000e+000  -0.000000e+000  0.000000e+000
    outer loop
      vertex  3.000000e+000  5.550000e+001  2.300000e+001
      vertex  3.000000e+000  4.482624e+001  8.228993e+000
      vertex  3.000000e+000  4.681479e+001  4.326238e+000
    endloop
  endfacet
  facet normal  1.000000e+000  -0.000000e+000  0.000000e+000
    outer loop
      vertex  3.000000e+000  5.550000e+001  2.300000e+001
      vertex  3.000000e+000  4.681479e+001  4.326238e+000
      vertex  3.000000e+000  5.550000e+001 -2.300000e+001
    endloop
  endfacet
  facet normal  1.000000e+000  0.000000e+000  0.000000e+000
    outer loop
      vertex  3.000000e+000 -5.550000e+001 -2.300000e+001
      vertex  3.000000e+000  5.550000e+001 -2.300000e+001
      vertex  3.000000e+000  3.350000e+001 -1.400000e+001
    endloop
  endfacet
  facet normal  1.000000e+000  0.000000e+000  0.000000e+000
    outer loop
      vertex  3.000000e+000 -5.550000e+001 -2.300000e+001
      vertex  3.000000e+000  3.350000e+001 -1.400000e+001
      vertex  3.000000e+000 -5.000000e+000 -1.575000e+001
    endloop
  endfacet
  facet normal  1.000000e+000  0.000000e+000  0.000000e+000
    outer loop
      vertex  3.000000e+000 -5.550000e+001 -2.300000e+001
      vertex  3.000000e+000 -5.000000e+000 -1.575000e+001
      vertex  3.000000e+000 -8.157138e+000 -1.512201e+001
    endloop
  endfacet
  facet normal  1.000000e+000  0.000000e+000  0.000000e+000
    outer loop
      vertex  3.000000e+000 -5.550000e+001 -2.300000e+001
      vertex  3.000000e+000 -8.157138e+000 -1.512201e+001
      vertex  3.000000e+000 -1.083363e+001 -1.333363e+001
    endloop
  endfacet
  facet normal  1.000000e+000  0.000000e+000  0.000000e+000
    outer loop
      vertex  3.000000e+000 -5.550000e+001 -2.300000e+001
      vertex  3.000000e+000 -1.083363e+001 -1.333363e+001
      vertex  3.000000e+000 -3.319872e+001 -1.107909e+001
    endloop
  endfacet
  facet normal  1.000000e+000  0.000000e+000  0.000000e+000
    outer loop
      vertex  3.000000e+000 -5.550000e+001 -2.300000e+001
      vertex  3.000000e+000 -3.319872e+001 -1.107909e+001
      vertex  3.000000e+000 -3.710580e+001 -1.107909e+001
    endloop
  endfacet
  facet normal  1.000000e+000  0.000000e+000  0.000000e+000
    outer loop
      vertex  3.000000e+000 -5.550000e+001 -2.300000e+001
      vertex  3.000000e+000 -3.710580e+001 -1.107909e+001
      vertex  3.000000e+000 -4.077726e+001 -9.742785e+000
    endloop
  endfacet
  facet normal  1.000000e+000  0.000000e+000  0.000000e+000
    outer loop
      vertex  3.000000e+000 -5.550000e+001 -2.300000e+001
      vertex  3.000000e+000 -4.077726e+001 -9.742785e+000
      vertex  3.000000e+000 -4.377026e+001 -7.231360e+000
    endloop
  endfacet
  facet normal  1.000000e+000  0.000000e+000  0.000000e+000
    outer loop
      vertex  3.000000e+000 -5.550000e+001 -2.300000e+001
      vertex  3.000000e+000 -4.377026e+001 -7.231360e+000
      vertex  3.000000e+000 -4.572380e+001 -3.847727e+000
    endloop
  endfacet
  facet normal  1.000000e+000  0.000000e+000  0.000000e+000
    outer loop
      vertex  3.000000e+000 -5.550000e+001 -2.300000e+001
      vertex  3.000000e+000 -4.572380e+001 -3.847727e+000
      vertex  3.000000e+000 -4.640226e+001  1.377728e-015
    endloop
  endfacet
  facet normal  1.000000e+000  0.000000e+000  -0.000000e+000
    outer loop
      vertex  3.000000e+000 -5.550000e+001 -2.300000e+001
      vertex  3.000000e+000 -4.640226e+001  1.377728e-015
      vertex  3.000000e+000 -4.572380e+001  3.847727e+000
    endloop
  endfacet
  facet normal  1.000000e+000  0.000000e+000  0.000000e+000
    outer loop
      vertex  3.000000e+000 -5.550000e+001 -2.300000e+001
      vertex  3.000000e+000 -4.572380e+001  3.847727e+000
      vertex  3.000000e+000 -5.550000e+001  2.300000e+001
    endloop
  endfacet
  facet normal  1.000000e+000  0.000000e+000  -0.000000e+000
    outer loop
      vertex  3.000000e+000 -5.550000e+001  2.300000e+001
      vertex  3.000000e+000 -4.572380e+001  3.847727e+000
      vertex  3.000000e+000 -4.377026e+001  7.231360e+000
    endloop
  endfacet
  facet normal  1.000000e+000  0.000000e+000  -0.000000e+000
    outer loop
      vertex  3.000000e+000 -5.550000e+001  2.300000e+001
      vertex  3.000000e+000 -4.377026e+001  7.231360e+000
      vertex  3.000000e+000 -4.077726e+001  9.742785e+000
    endloop
  endfacet
  facet normal  1.000000e+000  0.000000e+000  -0.000000e+000
    outer loop
      vertex  3.000000e+000 -5.550000e+001  2.300000e+001
      vertex  3.000000e+000 -4.077726e+001  9.742785e+000
      vertex  3.000000e+000 -3.710580e+001  1.107909e+001
    endloop
  endfacet
  facet normal  1.000000e+000  0.000000e+000  -0.000000e+000
    outer loop
      vertex  3.000000e+000 -5.550000e+001  2.300000e+001
      vertex  3.000000e+000 -3.710580e+001  1.107909e+001
      vertex  3.000000e+000 -3.319872e+001  1.107909e+001
    endloop
  endfacet
  facet normal  1.000000e+000  0.000000e+000  -0.000000e+000
    outer loop
      vertex  3.000000e+000 -5.550000e+001  2.300000e+001
      vertex  3.000000e+000 -3.319872e+001  1.107909e+001
      vertex  3.000000e+000 -1.650000e+001  1.700000e+001
    endloop
  endfacet
  facet normal  1.000000e+000  0.000000e+000  -0.000000e+000
    outer loop
      vertex  3.000000e+000 -5.550000e+001  2.300000e+001
      vertex  3.000000e+000 -1.650000e+001  1.700000e+001
      vertex  3.000000e+000  1.150000e+001  1.700000e+001
    endloop
  endfacet
  facet normal  1.000000e+000  0.000000e+000  0.000000e+000
    outer loop
      vertex  3.000000e+000  1.150000e+001  1.700000e+001
      vertex  3.000000e+000  1.150000e+001  4.000000e+000
      vertex  3.000000e+000  2.527101e+001  1.132624e+001
    endloop
  endfacet
  facet normal  1.000000e+000  0.000000e+000  -0.000000e+000
    outer loop
      vertex  3.000000e+000  1.150000e+001  1.700000e+001
      vertex  3.000000e+000  2.527101e+001  1.132624e+001
      vertex  3.000000e+000  2.917376e+001  1.331479e+001
    endloop
  endfacet
  facet normal  1.000000e+000  0.000000e+000  -0.000000e+000
    outer loop
      vertex  3.000000e+000  1.150000e+001  1.700000e+001
      vertex  3.000000e+000  2.917376e+001  1.331479e+001
      vertex  3.000000e+000  3.350000e+001  1.400000e+001
    endloop
  endfacet
  facet normal  1.000000e+000  0.000000e+000  0.000000e+000
    outer loop
      vertex  3.000000e+000  5.550000e+001 -2.300000e+001
      vertex  3.000000e+000  4.681479e+001  4.326238e+000
      vertex  3.000000e+000  4.750000e+001  0.000000e+000
    endloop
  endfacet
  facet normal  1.000000e+000  0.000000e+000  0.000000e+000
    outer loop
      vertex  3.000000e+000  5.550000e+001 -2.300000e+001
      vertex  3.000000e+000  4.750000e+001  0.000000e+000
      vertex  3.000000e+000  4.681479e+001 -4.326238e+000
    endloop
  endfacet
  facet normal  1.000000e+000  0.000000e+000  0.000000e+000
    outer loop
      vertex  3.000000e+000  5.550000e+001 -2.300000e+001
      vertex  3.000000e+000  4.681479e+001 -4.326238e+000
      vertex  3.000000e+000  4.482624e+001 -8.228993e+000
    endloop
  endfacet
  facet normal  1.000000e+000  0.000000e+000  0.000000e+000
    outer loop
      vertex  3.000000e+000  5.550000e+001 -2.300000e+001
      vertex  3.000000e+000  4.482624e+001 -8.228993e+000
      vertex  3.000000e+000  4.172899e+001 -1.132624e+001
    endloop
  endfacet
  facet normal  1.000000e+000  0.000000e+000  0.000000e+000
    outer loop
      vertex  3.000000e+000  5.550000e+001 -2.300000e+001
      vertex  3.000000e+000  4.172899e+001 -1.132624e+001
      vertex  3.000000e+000  3.782624e+001 -1.331479e+001
    endloop
  endfacet
  facet normal  9.999999e-001  0.000000e+000  0.000000e+000
    outer loop
      vertex  3.000000e+000  5.550000e+001 -2.300000e+001
      vertex  3.000000e+000  3.782624e+001 -1.331479e+001
      vertex  3.000000e+000  3.350000e+001 -1.400000e+001
    endloop
  endfacet
  facet normal  1.000000e+000  0.000000e+000  0.000000e+000
    outer loop
      vertex  3.000000e+000 -5.000000e+000  7.500000e-001
      vertex  3.000000e+000 -2.458071e+001  3.847727e+000
      vertex  3.000000e+000 -8.157138e+000  1.220061e-001
    endloop
  endfacet
  facet normal  1.000000e+000  0.000000e+000  0.000000e+000
    outer loop
      vertex  3.000000e+000 -8.157138e+000  1.220061e-001
      vertex  3.000000e+000 -2.458071e+001  3.847727e+000
      vertex  3.000000e+000 -2.390226e+001  0.000000e+000
    endloop
  endfacet
  facet normal  1.000000e+000  -0.000000e+000  0.000000e+000
    outer loop
      vertex  3.000000e+000 -8.157138e+000  1.220061e-001
      vertex  3.000000e+000 -2.390226e+001  0.000000e+000
      vertex  3.000000e+000 -1.083363e+001 -1.666369e+000
    endloop
  endfacet
  facet normal  1.000000e+000  0.000000e+000  0.000000e+000
    outer loop
      vertex  3.000000e+000 -1.083363e+001 -1.666369e+000
      vertex  3.000000e+000 -2.390226e+001  0.000000e+000
      vertex  3.000000e+000 -2.458071e+001 -3.847727e+000
    endloop
  endfacet
  facet normal  1.000000e+000  -0.000000e+000  0.000000e+000
    outer loop
      vertex  3.000000e+000 -1.083363e+001 -1.666369e+000
      vertex  3.000000e+000 -2.458071e+001 -3.847727e+000
      vertex  3.000000e+000 -1.262201e+001 -4.342862e+000
    endloop
  endfacet
  facet normal  1.000000e+000  0.000000e+000  0.000000e+000
    outer loop
      vertex  3.000000e+000 -1.262201e+001 -4.342862e+000
      vertex  3.000000e+000 -2.458071e+001 -3.847727e+000
      vertex  3.000000e+000 -1.325000e+001 -7.500000e+000
    endloop
  endfacet
  facet normal  1.000000e+000  0.000000e+000  0.000000e+000
    outer loop
      vertex  3.000000e+000 -1.325000e+001 -7.500000e+000
      vertex  3.000000e+000 -2.458071e+001 -3.847727e+000
      vertex  3.000000e+000 -2.653426e+001 -7.231360e+000
    endloop
  endfacet
  facet normal  1.000000e+000  0.000000e+000  0.000000e+000
    outer loop
      vertex  3.000000e+000 -1.325000e+001 -7.500000e+000
      vertex  3.000000e+000 -2.653426e+001 -7.231360e+000
      vertex  3.000000e+000 -1.262201e+001 -1.065714e+001
    endloop
  endfacet
  facet normal  1.000000e+000  0.000000e+000  0.000000e+000
    outer loop
      vertex  3.000000e+000 -1.262201e+001 -1.065714e+001
      vertex  3.000000e+000 -2.653426e+001 -7.231360e+000
      vertex  3.000000e+000 -2.952726e+001 -9.742785e+000
    endloop
  endfacet
  facet normal  1.000000e+000  0.000000e+000  0.000000e+000
    outer loop
      vertex  3.000000e+000 -1.262201e+001 -1.065714e+001
      vertex  3.000000e+000 -2.952726e+001 -9.742785e+000
      vertex  3.000000e+000 -3.319872e+001 -1.107909e+001
    endloop
  endfacet
  facet normal  1.000000e+000  0.000000e+000  0.000000e+000
    outer loop
      vertex  3.000000e+000  1.950000e+001  1.714506e-015
      vertex  3.000000e+000 -1.842862e+000  1.220061e-001
      vertex  3.000000e+000  2.018521e+001 -4.326238e+000
    endloop
  endfacet
  facet normal  9.999999e-001  0.000000e+000  0.000000e+000
    outer loop
      vertex  3.000000e+000  2.018521e+001 -4.326238e+000
      vertex  3.000000e+000 -1.842862e+000  1.220061e-001
      vertex  3.000000e+000  8.336309e-001 -1.666369e+000
    endloop
  endfacet
  facet normal  9.999999e-001  0.000000e+000  0.000000e+000
    outer loop
      vertex  3.000000e+000  2.018521e+001 -4.326238e+000
      vertex  3.000000e+000  8.336309e-001 -1.666369e+000
      vertex  3.000000e+000  2.622006e+000 -4.342862e+000
    endloop
  endfacet
  facet normal  1.000000e+000  -0.000000e+000  0.000000e+000
    outer loop
      vertex  3.000000e+000  2.018521e+001 -4.326238e+000
      vertex  3.000000e+000  2.622006e+000 -4.342862e+000
      vertex  3.000000e+000  2.217376e+001 -8.228993e+000
    endloop
  endfacet
  facet normal  1.000000e+000  0.000000e+000  0.000000e+000
    outer loop
      vertex  3.000000e+000  2.217376e+001 -8.228993e+000
      vertex  3.000000e+000  2.622006e+000 -4.342862e+000
      vertex  3.000000e+000  3.250000e+000 -7.500000e+000
    endloop
  endfacet
  facet normal  1.000000e+000  0.000000e+000  0.000000e+000
    outer loop
      vertex  3.000000e+000  2.217376e+001 -8.228993e+000
      vertex  3.000000e+000  3.250000e+000 -7.500000e+000
      vertex  3.000000e+000  2.527101e+001 -1.132624e+001
    endloop
  endfacet
  facet normal  1.000000e+000  0.000000e+000  0.000000e+000
    outer loop
      vertex  3.000000e+000  2.527101e+001 -1.132624e+001
      vertex  3.000000e+000  3.250000e+000 -7.500000e+000
      vertex  3.000000e+000  2.622006e+000 -1.065714e+001
    endloop
  endfacet
  facet normal  1.000000e+000  0.000000e+000  0.000000e+000
    outer loop
      vertex  3.000000e+000  2.527101e+001 -1.132624e+001
      vertex  3.000000e+000  2.622006e+000 -1.065714e+001
      vertex  3.000000e+000  2.917376e+001 -1.331479e+001
    endloop
  endfacet
  facet normal  1.000000e+000  0.000000e+000  0.000000e+000
    outer loop
      vertex  3.000000e+000  2.917376e+001 -1.331479e+001
      vertex  3.000000e+000  2.622006e+000 -1.065714e+001
      vertex  3.000000e+000  8.336309e-001 -1.333363e+001
    endloop
  endfacet
  facet normal  1.000000e+000  -0.000000e+000  0.000000e+000
    outer loop
      vertex  3.000000e+000  2.917376e+001 -1.331479e+001
      vertex  3.000000e+000  8.336309e-001 -1.333363e+001
      vertex  3.000000e+000  3.350000e+001 -1.400000e+001
    endloop
  endfacet
  facet normal  9.999999e-001  0.000000e+000  0.000000e+000
    outer loop
      vertex  3.000000e+000  3.350000e+001 -1.400000e+001
      vertex  3.000000e+000  8.336309e-001 -1.333363e+001
      vertex  3.000000e+000 -1.842862e+000 -1.512201e+001
    endloop
  endfacet
  facet normal  1.000000e+000  -0.000000e+000  0.000000e+000
    outer loop
      vertex  3.000000e+000  3.350000e+001 -1.400000e+001
      vertex  3.000000e+000 -1.842862e+000 -1.512201e+001
      vertex  3.000000e+000 -5.000000e+000 -1.575000e+001
    endloop
  endfacet
  facet normal  0.000000e+000  0.000000e+000 -1.000000e+000
    outer loop
      vertex  3.000000e+000 -5.550000e+001  2.300000e+001
      vertex  3.000000e+000  5.550000e+001  2.300000e+001
      vertex  1.500000e+001 -5.550000e+001  2.300000e+001
    endloop
  endfacet
  facet normal  0.000000e+000  0.000000e+000 -1.000000e+000
    outer loop
      vertex  1.500000e+001 -5.550000e+001  2.300000e+001
      vertex  3.000000e+000  5.550000e+001  2.300000e+001
      vertex  1.500000e+001  5.550000e+001  2.300000e+001
    endloop
  endfacet
  facet normal  0.000000e+000 -1.000000e+000  0.000000e+000
    outer loop
      vertex  3.000000e+000  5.550000e+001 -2.300000e+001
      vertex  1.500000e+001  5.550000e+001 -2.300000e+001
      vertex  3.000000e+000  5.550000e+001  2.300000e+001
    endloop
  endfacet
  facet normal  0.000000e+000 -1.000000e+000  0.000000e+000
    outer loop
      vertex  3.000000e+000  5.550000e+001  2.300000e+001
      vertex  1.500000e+001  5.550000e+001 -2.300000e+001
      vertex  1.500000e+001  5.550000e+001  2.300000e+001
    endloop
  endfacet
  facet normal  0.000000e+000  0.000000e+000  1.000000e+000
    outer loop
      vertex  3.000000e+000  5.550000e+001 -2.300000e+001
      vertex  3.000000e+000 -5.550000e+001 -2.300000e+001
      vertex  1.500000e+001  5.550000e+001 -2.300000e+001
    endloop
  endfacet
  facet normal  0.000000e+000  0.000000e+000  1.000000e+000
    outer loop
      vertex  1.500000e+001  5.550000e+001 -2.300000e+001
      vertex  3.000000e+000 -5.550000e+001 -2.300000e+001
      vertex  1.500000e+001 -5.550000e+001 -2.300000e+001
    endloop
  endfacet
  facet normal  0.000000e+000  1.000000e+000  0.000000e+000
    outer loop
      vertex  3.000000e+000 -5.550000e+001  2.300000e+001
      vertex  1.500000e+001 -5.550000e+001  2.300000e+001
      vertex  3.000000e+000 -5.550000e+001 -2.300000e+001
    endloop
  endfacet
  facet normal  0.000000e+000  1.000000e+000  0.000000e+000
    outer loop
      vertex  3.000000e+000 -5.550000e+001 -2.300000e+001
      vertex  1.500000e+001 -5.550000e+001  2.300000e+001
      vertex  1.500000e+001 -5.550000e+001 -2.300000e+001
    endloop
  endfacet
  facet normal -1.000000e+000  0.000000e+000  0.000000e+000
    outer loop
      vertex  0.000000e+000 -2.952726e+001  9.742785e+000
      vertex  0.000000e+000 -3.319872e+001  1.107909e+001
      vertex  0.000000e+000 -1.650000e+001  1.700000e+001
    endloop
  endfacet
  facet normal -1.000000e+000  0.000000e+000  0.000000e+000
    outer loop
      vertex  0.000000e+000 -1.262201e+001 -1.065714e+001
      vertex  0.000000e+000 -1.083363e+001 -1.333363e+001
      vertex  0.000000e+000 -3.319872e+001 -1.107909e+001
    endloop
  endfacet
  facet normal -1.000000e+000  -0.000000e+000  -0.000000e+000
    outer loop
      vertex  0.000000e+000 -1.650000e+001  4.000000e+000
      vertex  0.000000e+000  1.150000e+001  4.000000e+000
      vertex  0.000000e+000  1.950000e+001  1.714506e-015
    endloop
  endfacet
  facet normal -1.000000e+000  0.000000e+000  0.000000e+000
    outer loop
      vertex  0.000000e+000 -1.650000e+001  4.000000e+000
      vertex  0.000000e+000  1.950000e+001  1.714506e-015
      vertex  0.000000e+000 -1.842862e+000  1.220061e-001
    endloop
  endfacet
  facet normal -1.000000e+000  0.000000e+000  0.000000e+000
    outer loop
      vertex  0.000000e+000 -1.650000e+001  4.000000e+000
      vertex  0.000000e+000 -1.842862e+000  1.220061e-001
      vertex  0.000000e+000 -5.000000e+000  7.500000e-001
    endloop
  endfacet
  facet normal -9.999999e-001  0.000000e+000  0.000000e+000
    outer loop
      vertex  0.000000e+000 -1.650000e+001  4.000000e+000
      vertex  0.000000e+000 -5.000000e+000  7.500000e-001
      vertex  0.000000e+000 -2.458071e+001  3.847727e+000
    endloop
  endfacet
  facet normal -9.999999e-001  0.000000e+000  0.000000e+000
    outer loop
      vertex  0.000000e+000 -1.650000e+001  4.000000e+000
      vertex  0.000000e+000 -2.458071e+001  3.847727e+000
      vertex  0.000000e+000 -2.653426e+001  7.231360e+000
    endloop
  endfacet
  facet normal -1.000000e+000  0.000000e+000  0.000000e+000
    outer loop
      vertex  0.000000e+000 -1.650000e+001  4.000000e+000
      vertex  0.000000e+000 -2.653426e+001  7.231360e+000
      vertex  0.000000e+000 -2.952726e+001  9.742785e+000
    endloop
  endfacet
  facet normal -1.000000e+000  0.000000e+000  0.000000e+000
    outer loop
      vertex  0.000000e+000 -1.650000e+001  4.000000e+000
      vertex  0.000000e+000 -2.952726e+001  9.742785e+000
      vertex  0.000000e+000 -1.650000e+001  1.700000e+001
    endloop
  endfacet
  facet normal -1.000000e+000  0.000000e+000  0.000000e+000
    outer loop
      vertex  0.000000e+000  1.150000e+001  4.000000e+000
      vertex  0.000000e+000  2.527101e+001  1.132624e+001
      vertex  0.000000e+000  2.217376e+001  8.228993e+000
    endloop
  endfacet
  facet normal -1.000000e+000  0.000000e+000  0.000000e+000
    outer loop
      vertex  0.000000e+000  1.150000e+001  4.000000e+000
      vertex  0.000000e+000  2.217376e+001  8.228993e+000
      vertex  0.000000e+000  2.018521e+001  4.326238e+000
    endloop
  endfacet
  facet normal -1.000000e+000  0.000000e+000  0.000000e+000
    outer loop
      vertex  0.000000e+000  1.150000e+001  4.000000e+000
      vertex  0.000000e+000  2.018521e+001  4.326238e+000
      vertex  0.000000e+000  1.950000e+001  1.714506e-015
    endloop
  endfacet
  facet normal -1.000000e+000  0.000000e+000  0.000000e+000
    outer loop
      vertex  0.000000e+000  5.750000e+001  2.500000e+001
      vertex  0.000000e+000  5.750000e+001 -2.500000e+001
      vertex  0.000000e+000  4.681479e+001  4.326238e+000
    endloop
  endfacet
  facet normal -1.000000e+000  0.000000e+000  0.000000e+000
    outer loop
      vertex  0.000000e+000  5.750000e+001  2.500000e+001
      vertex  0.000000e+000  4.681479e+001  4.326238e+000
      vertex  0.000000e+000  4.482624e+001  8.228993e+000
    endloop
  endfacet
  facet normal -1.000000e+000  0.000000e+000  0.000000e+000
    outer loop
      vertex  0.000000e+000  5.750000e+001  2.500000e+001
      vertex  0.000000e+000  4.482624e+001  8.228993e+000
      vertex  0.000000e+000  4.172899e+001  1.132624e+001
    endloop
  endfacet
  facet normal -9.999999e-001  0.000000e+000  0.000000e+000
    outer loop
      vertex  0.000000e+000  5.750000e+001  2.500000e+001
      vertex  0.000000e+000  4.172899e+001  1.132624e+001
      vertex  0.000000e+000  3.782624e+001  1.331479e+001
    endloop
  endfacet
  facet normal -1.000000e+000  0.000000e+000  0.000000e+000
    outer loop
      vertex  0.000000e+000  5.750000e+001  2.500000e+001
      vertex  0.000000e+000  3.782624e+001  1.331479e+001
      vertex  0.000000e+000  3.350000e+001  1.400000e+001
    endloop
  endfacet
  facet normal -1.000000e+000  0.000000e+000  0.000000e+000
    outer loop
      vertex  0.000000e+000  5.750000e+001  2.500000e+001
      vertex  0.000000e+000  3.350000e+001  1.400000e+001
      vertex  0.000000e+000  1.150000e+001  1.700000e+001
    endloop
  endfacet
  facet normal -9.999999e-001  0.000000e+000  0.000000e+000
    outer loop
      vertex  0.000000e+000  5.750000e+001  2.500000e+001
      vertex  0.000000e+000  1.150000e+001  1.700000e+001
      vertex  0.000000e+000 -5.750000e+001  2.500000e+001
    endloop
  endfacet
  facet normal -1.000000e+000  0.000000e+000  0.000000e+000
    outer loop
      vertex  0.000000e+000 -5.750000e+001 -2.500000e+001
      vertex  0.000000e+000 -5.750000e+001  2.500000e+001
      vertex  0.000000e+000 -4.572380e+001  3.847727e+000
    endloop
  endfacet
  facet normal -1.000000e+000  0.000000e+000  0.000000e+000
    outer loop
      vertex  0.000000e+000 -5.750000e+001 -2.500000e+001
      vertex  0.000000e+000 -4.572380e+001  3.847727e+000
      vertex  0.000000e+000 -4.640226e+001  1.377728e-015
    endloop
  endfacet
  facet normal -9.999999e-001  0.000000e+000  -0.000000e+000
    outer loop
      vertex  0.000000e+000 -5.750000e+001 -2.500000e+001
      vertex  0.000000e+000 -4.640226e+001  1.377728e-015
      vertex  0.000000e+000 -4.572380e+001 -3.847727e+000
    endloop
  endfacet
  facet normal -1.000000e+000  0.000000e+000  -0.000000e+000
    outer loop
      vertex  0.000000e+000 -5.750000e+001 -2.500000e+001
      vertex  0.000000e+000 -4.572380e+001 -3.847727e+000
      vertex  0.000000e+000 -4.377026e+001 -7.231360e+000
    endloop
  endfacet
  facet normal -1.000000e+000  0.000000e+000  -0.000000e+000
    outer loop
      vertex  0.000000e+000 -5.750000e+001 -2.500000e+001
      vertex  0.000000e+000 -4.377026e+001 -7.231360e+000
      vertex  0.000000e+000 -4.077726e+001 -9.742785e+000
    endloop
  endfacet
  facet normal -1.000000e+000  0.000000e+000  -0.000000e+000
    outer loop
      vertex  0.000000e+000 -5.750000e+001 -2.500000e+001
      vertex  0.000000e+000 -4.077726e+001 -9.742785e+000
      vertex  0.000000e+000 -3.710580e+001 -1.107909e+001
    endloop
  endfacet
  facet normal -1.000000e+000  0.000000e+000  -0.000000e+000
    outer loop
      vertex  0.000000e+000 -5.750000e+001 -2.500000e+001
      vertex  0.000000e+000 -3.710580e+001 -1.107909e+001
      vertex  0.000000e+000 -3.319872e+001 -1.107909e+001
    endloop
  endfacet
  facet normal -1.000000e+000  0.000000e+000  -0.000000e+000
    outer loop
      vertex  0.000000e+000 -5.750000e+001 -2.500000e+001
      vertex  0.000000e+000 -3.319872e+001 -1.107909e+001
      vertex  0.000000e+000 -1.083363e+001 -1.333363e+001
    endloop
  endfacet
  facet normal -1.000000e+000  0.000000e+000  -0.000000e+000
    outer loop
      vertex  0.000000e+000 -5.750000e+001 -2.500000e+001
      vertex  0.000000e+000 -1.083363e+001 -1.333363e+001
      vertex  0.000000e+000 -8.157138e+000 -1.512201e+001
    endloop
  endfacet
  facet normal -9.999999e-001  0.000000e+000  -0.000000e+000
    outer loop
      vertex  0.000000e+000 -5.750000e+001 -2.500000e+001
      vertex  0.000000e+000 -8.157138e+000 -1.512201e+001
      vertex  0.000000e+000 -5.000000e+000 -1.575000e+001
    endloop
  endfacet
  facet normal -1.000000e+000  0.000000e+000  -0.000000e+000
    outer loop
      vertex  0.000000e+000 -5.750000e+001 -2.500000e+001
      vertex  0.000000e+000 -5.000000e+000 -1.575000e+001
      vertex  0.000000e+000  3.350000e+001 -1.400000e+001
    endloop
  endfacet
  facet normal -1.000000e+000  0.000000e+000  -0.000000e+000
    outer loop
      vertex  0.000000e+000 -5.750000e+001 -2.500000e+001
      vertex  0.000000e+000  3.350000e+001 -1.400000e+001
      vertex  0.000000e+000  5.750000e+001 -2.500000e+001
    endloop
  endfacet
  facet normal -1.000000e+000  0.000000e+000  0.000000e+000
    outer loop
      vertex  0.000000e+000 -5.750000e+001  2.500000e+001
      vertex  0.000000e+000  1.150000e+001  1.700000e+001
      vertex  0.000000e+000 -1.650000e+001  1.700000e+001
    endloop
  endfacet
  facet normal -1.000000e+000  -0.000000e+000  0.000000e+000
    outer loop
      vertex  0.000000e+000 -5.750000e+001  2.500000e+001
      vertex  0.000000e+000 -1.650000e+001  1.700000e+001
      vertex  0.000000e+000 -3.319872e+001  1.107909e+001
    endloop
  endfacet
  facet normal -1.000000e+000  0.000000e+000  0.000000e+000
    outer loop
      vertex  0.000000e+000 -5.750000e+001  2.500000e+001
      vertex  0.000000e+000 -3.319872e+001  1.107909e+001
      vertex  0.000000e+000 -3.710580e+001  1.107909e+001
    endloop
  endfacet
  facet normal -1.000000e+000  -0.000000e+000  0.000000e+000
    outer loop
      vertex  0.000000e+000 -5.750000e+001  2.500000e+001
      vertex  0.000000e+000 -3.710580e+001  1.107909e+001
      vertex  0.000000e+000 -4.077726e+001  9.742785e+000
    endloop
  endfacet
  facet normal -1.000000e+000  -0.000000e+000  0.000000e+000
    outer loop
      vertex  0.000000e+000 -5.750000e+001  2.500000e+001
      vertex  0.000000e+000 -4.077726e+001  9.742785e+000
      vertex  0.000000e+000 -4.377026e+001  7.231360e+000
    endloop
  endfacet
  facet normal -1.000000e+000  -0.000000e+000  0.000000e+000
    outer loop
      vertex  0.000000e+000 -5.750000e+001  2.500000e+001
      vertex  0.000000e+000 -4.377026e+001  7.231360e+000
      vertex  0.000000e+000 -4.572380e+001  3.847727e+000
    endloop
  endfacet
  facet normal -1.000000e+000  -0.000000e+000  0.000000e+000
    outer loop
      vertex  0.000000e+000  1.150000e+001  1.700000e+001
      vertex  0.000000e+000  3.350000e+001  1.400000e+001
      vertex  0.000000e+000  2.917376e+001  1.331479e+001
    endloop
  endfacet
  facet normal -9.999999e-001  -0.000000e+000  0.000000e+000
    outer loop
      vertex  0.000000e+000  1.150000e+001  1.700000e+001
      vertex  0.000000e+000  2.917376e+001  1.331479e+001
      vertex  0.000000e+000  2.527101e+001  1.132624e+001
    endloop
  endfacet
  facet normal -1.000000e+000  -0.000000e+000  0.000000e+000
    outer loop
      vertex  0.000000e+000  1.150000e+001  1.700000e+001
      vertex  0.000000e+000  2.527101e+001  1.132624e+001
      vertex  0.000000e+000  1.150000e+001  4.000000e+000
    endloop
  endfacet
  facet normal -1.000000e+000  0.000000e+000  0.000000e+000
    outer loop
      vertex  0.000000e+000  5.750000e+001 -2.500000e+001
      vertex  0.000000e+000  3.350000e+001 -1.400000e+001
      vertex  0.000000e+000  3.782624e+001 -1.331479e+001
    endloop
  endfacet
  facet normal -9.999999e-001  0.000000e+000  0.000000e+000
    outer loop
      vertex  0.000000e+000  5.750000e+001 -2.500000e+001
      vertex  0.000000e+000  3.782624e+001 -1.331479e+001
      vertex  0.000000e+000  4.172899e+001 -1.132624e+001
    endloop
  endfacet
  facet normal -1.000000e+000  0.000000e+000  0.000000e+000
    outer loop
      vertex  0.000000e+000  5.750000e+001 -2.500000e+001
      vertex  0.000000e+000  4.172899e+001 -1.132624e+001
      vertex  0.000000e+000  4.482624e+001 -8.228993e+000
    endloop
  endfacet
  facet normal -1.000000e+000  0.000000e+000  0.000000e+000
    outer loop
      vertex  0.000000e+000  5.750000e+001 -2.500000e+001
      vertex  0.000000e+000  4.482624e+001 -8.228993e+000
      vertex  0.000000e+000  4.681479e+001 -4.326238e+000
    endloop
  endfacet
  facet normal -9.999999e-001  0.000000e+000  0.000000e+000
    outer loop
      vertex  0.000000e+000  5.750000e+001 -2.500000e+001
      vertex  0.000000e+000  4.681479e+001 -4.326238e+000
      vertex  0.000000e+000  4.750000e+001  0.000000e+000
    endloop
  endfacet
  facet normal -1.000000e+000  0.000000e+000  0.000000e+000
    outer loop
      vertex  0.000000e+000  5.750000e+001 -2.500000e+001
      vertex  0.000000e+000  4.750000e+001  0.000000e+000
      vertex  0.000000e+000  4.681479e+001  4.326238e+000
    endloop
  endfacet
  facet normal -1.000000e+000  0.000000e+000  0.000000e+000
    outer loop
      vertex  0.000000e+000 -1.262201e+001 -4.342862e+000
      vertex  0.000000e+000 -2.458071e+001 -3.847727e+000
      vertex  0.000000e+000 -1.083363e+001 -1.666369e+000
    endloop
  endfacet
  facet normal -1.000000e+000  -0.000000e+000  0.000000e+000
    outer loop
      vertex  0.000000e+000 -1.083363e+001 -1.666369e+000
      vertex  0.000000e+000 -2.458071e+001 -3.847727e+000
      vertex  0.000000e+000 -2.390226e+001  0.000000e+000
    endloop
  endfacet
  facet normal -1.000000e+000  0.000000e+000  0.000000e+000
    outer loop
      vertex  0.000000e+000 -1.083363e+001 -1.666369e+000
      vertex  0.000000e+000 -2.390226e+001  0.000000e+000
      vertex  0.000000e+000 -8.157138e+000  1.220061e-001
    endloop
  endfacet
  facet normal -1.000000e+000  -0.000000e+000  0.000000e+000
    outer loop
      vertex  0.000000e+000 -8.157138e+000  1.220061e-001
      vertex  0.000000e+000 -2.390226e+001  0.000000e+000
      vertex  0.000000e+000 -2.458071e+001  3.847727e+000
    endloop
  endfacet
  facet normal -1.000000e+000  0.000000e+000  0.000000e+000
    outer loop
      vertex  0.000000e+000 -8.157138e+000  1.220061e-001
      vertex  0.000000e+000 -2.458071e+001  3.847727e+000
      vertex  0.000000e+000 -5.000000e+000  7.500000e-001
    endloop
  endfacet
  facet normal -1.000000e+000  0.000000e+000  -0.000000e+000
    outer loop
      vertex  0.000000e+000 -3.319872e+001 -1.107909e+001
      vertex  0.000000e+000 -2.952726e+001 -9.742785e+000
      vertex  0.000000e+000 -1.262201e+001 -1.065714e+001
    endloop
  endfacet
  facet normal -1.000000e+000  0.000000e+000  0.000000e+000
    outer loop
      vertex  0.000000e+000 -1.262201e+001 -1.065714e+001
      vertex  0.000000e+000 -2.952726e+001 -9.742785e+000
      vertex  0.000000e+000 -2.653426e+001 -7.231360e+000
    endloop
  endfacet
  facet normal -1.000000e+000  0.000000e+000  0.000000e+000
    outer loop
      vertex  0.000000e+000 -1.262201e+001 -1.065714e+001
      vertex  0.000000e+000 -2.653426e+001 -7.231360e+000
      vertex  0.000000e+000 -1.325000e+001 -7.500000e+000
    endloop
  endfacet
  facet normal -1.000000e+000  0.000000e+000  0.000000e+000
    outer loop
      vertex  0.000000e+000 -1.325000e+001 -7.500000e+000
      vertex  0.000000e+000 -2.653426e+001 -7.231360e+000
      vertex  0.000000e+000 -2.458071e+001 -3.847727e+000
    endloop
  endfacet
  facet normal -1.000000e+000  0.000000e+000  0.000000e+000
    outer loop
      vertex  0.000000e+000 -1.325000e+001 -7.500000e+000
      vertex  0.000000e+000 -2.458071e+001 -3.847727e+000
      vertex  0.000000e+000 -1.262201e+001 -4.342862e+000
    endloop
  endfacet
  facet normal -9.999999e-001  0.000000e+000  0.000000e+000
    outer loop
      vertex  0.000000e+000  2.622006e+000 -4.342862e+000
      vertex  0.000000e+000  8.336309e-001 -1.666369e+000
      vertex  0.000000e+000  2.018521e+001 -4.326238e+000
    endloop
  endfacet
  facet normal -9.999999e-001  0.000000e+000  0.000000e+000
    outer loop
      vertex  0.000000e+000  2.018521e+001 -4.326238e+000
      vertex  0.000000e+000  8.336309e-001 -1.666369e+000
      vertex  0.000000e+000 -1.842862e+000  1.220061e-001
    endloop
  endfacet
  facet normal -1.000000e+000  0.000000e+000  0.000000e+000
    outer loop
      vertex  0.000000e+000  2.018521e+001 -4.326238e+000
      vertex  0.000000e+000 -1.842862e+000  1.220061e-001
      vertex  0.000000e+000  1.950000e+001  1.714506e-015
    endloop
  endfacet
  facet normal -1.000000e+000  0.000000e+000  -0.000000e+000
    outer loop
      vertex  0.000000e+000 -5.000000e+000 -1.575000e+001
      vertex  0.000000e+000 -1.842862e+000 -1.512201e+001
      vertex  0.000000e+000  3.350000e+001 -1.400000e+001
    endloop
  endfacet
  facet normal -9.999999e-001  -0.000000e+000  0.000000e+000
    outer loop
      vertex  0.000000e+000  3.350000e+001 -1.400000e+001
      vertex  0.000000e+000 -1.842862e+000 -1.512201e+001
      vertex  0.000000e+000  8.336309e-001 -1.333363e+001
    endloop
  endfacet
  facet normal -1.000000e+000  0.000000e+000  0.000000e+000
    outer loop
      vertex  0.000000e+000  3.350000e+001 -1.400000e+001
      vertex  0.000000e+000  8.336309e-001 -1.333363e+001
      vertex  0.000000e+000  2.917376e+001 -1.331479e+001
    endloop
  endfacet
  facet normal -1.000000e+000  -0.000000e+000  0.000000e+000
    outer loop
      vertex  0.000000e+000  2.917376e+001 -1.331479e+001
      vertex  0.000000e+000  8.336309e-001 -1.333363e+001
      vertex  0.000000e+000  2.622006e+000 -1.065714e+001
    endloop
  endfacet
  facet normal -1.000000e+000  0.000000e+000  0.000000e+000
    outer loop
      vertex  0.000000e+000  2.917376e+001 -1.331479e+001
      vertex  0.000000e+000  2.622006e+000 -1.065714e+001
      vertex  0.000000e+000  2.527101e+001 -1.132624e+001
    endloop
  endfacet
  facet normal -1.000000e+000  0.000000e+000  0.000000e+000
    outer loop
      vertex  0.000000e+000  2.527101e+001 -1.132624e+001
      vertex  0.000000e+000  2.622006e+000 -1.065714e+001
      vertex  0.000000e+000  3.250000e+000 -7.500000e+000
    endloop
  endfacet
  facet normal -1.000000e+000  0.000000e+000  0.000000e+000
    outer loop
      vertex  0.000000e+000  2.527101e+001 -1.132624e+001
      vertex  0.000000e+000  3.250000e+000 -7.500000e+000
      vertex  0.000000e+000  2.217376e+001 -8.228993e+000
    endloop
  endfacet
  facet normal -1.000000e+000  0.000000e+000  0.000000e+000
    outer loop
      vertex  0.000000e+000  2.217376e+001 -8.228993e+000
      vertex  0.000000e+000  3.250000e+000 -7.500000e+000
      vertex  0.000000e+000  2.622006e+000 -4.342862e+000
    endloop
  endfacet
  facet normal -1.000000e+000  0.000000e+000  0.000000e+000
    outer loop
      vertex  0.000000e+000  2.217376e+001 -8.228993e+000
      vertex  0.000000e+000  2.622006e+000 -4.342862e+000
      vertex  0.000000e+000  2.018521e+001 -4.326238e+000
    endloop
  endfacet
  facet normal  0.000000e+000  0.000000e+000  9.999999e-001
    outer loop
      vertex  1.500000e+001 -5.750000e+001  2.500000e+001
      vertex  1.500000e+001  5.750000e+001  2.500000e+001
      vertex  0.000000e+000 -5.750000e+001  2.500000e+001
    endloop
  endfacet
  facet normal  0.000000e+000  0.000000e+000  9.999999e-001
    outer loop
      vertex  0.000000e+000 -5.750000e+001  2.500000e+001
      vertex  1.500000e+001  5.750000e+001  2.500000e+001
      vertex  0.000000e+000  5.750000e+001  2.500000e+001
    endloop
  endfacet
  facet normal  0.000000e+000  1.000000e+000  0.000000e+000
    outer loop
      vertex  1.500000e+001  5.750000e+001 -2.500000e+001
      vertex  0.000000e+000  5.750000e+001 -2.500000e+001
      vertex  1.500000e+001  5.750000e+001  2.500000e+001
    endloop
  endfacet
  facet normal  0.000000e+000  1.000000e+000  0.000000e+000
    outer loop
      vertex  1.500000e+001  5.750000e+001  2.500000e+001
      vertex  0.000000e+000  5.750000e+001 -2.500000e+001
      vertex  0.000000e+000  5.750000e+001  2.500000e+001
    endloop
  endfacet
  facet normal  0.000000e+000  0.000000e+000 -9.999999e-001
    outer loop
      vertex  1.500000e+001  5.750000e+001 -2.500000e+001
      vertex  1.500000e+001 -5.750000e+001 -2.500000e+001
      vertex  0.000000e+000  5.750000e+001 -2.500000e+001
    endloop
  endfacet
  facet normal  0.000000e+000  0.000000e+000 -9.999999e-001
    outer loop
      vertex  0.000000e+000  5.750000e+001 -2.500000e+001
      vertex  1.500000e+001 -5.750000e+001 -2.500000e+001
      vertex  0.000000e+000 -5.750000e+001 -2.500000e+001
    endloop
  endfacet
  facet normal  0.000000e+000 -1.000000e+000  0.000000e+000
    outer loop
      vertex  1.500000e+001 -5.750000e+001  2.500000e+001
      vertex  0.000000e+000 -5.750000e+001  2.500000e+001
      vertex  1.500000e+001 -5.750000e+001 -2.500000e+001
    endloop
  endfacet
  facet normal  0.000000e+000 -1.000000e+000  0.000000e+000
    outer loop
      vertex  1.500000e+001 -5.750000e+001 -2.500000e+001
      vertex  0.000000e+000 -5.750000e+001  2.500000e+001
      vertex  0.000000e+000 -5.750000e+001 -2.500000e+001
    endloop
  endfacet
endsolid CATIA STL
